<ttFont>
          <CharString index="0">
            -41 callsubr
            249 141 221 229 183 -100 121 -189 -30 callsubr
            vhcurveto
            140 3 rmoveto
            -85 callsubr
            return
          </CharString>
          <CharString index="1">
            -97 callsubr
            -94 callsubr
          </CharString>
          <CharString index="2">
            216 rmoveto
            -153 90 -74 149 205 84 113 176 24 vhcurveto
            61 454 rlineto
            -107 hlineto
            -66 -487 rlineto
            -85 -11 -65 -76 -98 hhcurveto
            -83 -51 49 83 9 1 68 callsubr
            hvcurveto
            65 489 rlineto
            -149 hlineto
            7 -60 -53 -394 rlineto
            -3 -21 -1 -20 -21 vvcurveto
            return
          </CharString>
          <CharString index="3">
            -51 callsubr
            121 hmoveto
            -95 callsubr
            return
          </CharString>
          <CharString index="4">
            -39 8 34 -29 40 hhcurveto
            35 42 -78 callsubr
            -20 -5 -32 callsubr
            370 rlineto
            -63 hlineto
            -23 -41 rlineto
            return
          </CharString>
          <CharString index="5">
            15 201 rmoveto
            -135 94 -78 123 61 49 16 17 35 vhcurveto
            -66 callsubr
            -45 38 80 -5 hvcurveto
            239 3 65 2 callsubr
            -180 -98 -174 -135 vhcurveto
            return
          </CharString>
          <CharString index="6">
            -32 -104 callsubr
            return
          </CharString>
          <CharString index="7">
            37 -35 -53 13 -101 callsubr
            return
          </CharString>
          <CharString index="8">
            -31 26 -26 31 32 26 25 32 32 -26 25 -32 -31 -26 -26 -31 vhcurveto
            endchar
          </CharString>
          <CharString index="9">
            hstem
            15 127 181 123 vstem
            -102 callsubr
            return
          </CharString>
          <CharString index="10">
            rmoveto
            -32 25 -25 32 32 25 25 32 32 -25 25 -32 -32 -25 -25 -32 vhcurveto
            return
          </CharString>
          <CharString index="11">
            vstem
            51 -105 callsubr
            return
          </CharString>
          <CharString index="12">
            71 33 159 107 31 27 -12 -28 28 vhcurveto
            55 callsubr
            -35 -176 -99 hhcurveto
            -59 -14 63 63 hvcurveto
            return
          </CharString>
          <CharString index="13">
            160 hmoveto
            -99 callsubr
          </CharString>
          <CharString index="14">
            rmoveto
            79 74 60 -74 rlineto
            78 hlineto
            -79 145 rlineto
            -98 hlineto
            -116 -145 rlineto
            return
          </CharString>
          <CharString index="15">
            -173 -190 rmoveto
            10 -7 12 -7 14 -6 rrcurveto
            -11 24 35 -9 45 hhcurveto
            162 63 127 100 48 hvcurveto
            233 500 rlineto
            -112 hlineto
            -43 -92 -44 -91 -40 -93 -11 -23 -6 -28 -7 -24 -1 24 1 28 -4 23 -15 93 -21 91 -19 92 rrcurveto
            -122 hlineto
            105 -496 rlineto
            -58 -29 -52 -93 -87 hhcurveto
            -25 -21 9 9 -16 hvcurveto
            -9 5 -9 7 -8 7 return
          </CharString>
          <CharString index="16">
            86 hmoveto
            99 210 rlineto
            196 hlineto
            41 -210 rlineto
            140 hlineto
            -148 54 callsubr
            -108 hlineto
            -344 -732 rlineto
            return
          </CharString>
          <CharString index="17">
            rmoveto
            174 -69 callsubr
            -132 -165 rlineto
            endchar
          </CharString>
          <CharString index="18">
            -86 callsubr
            125 -6 -76 callsubr
            return
          </CharString>
          <CharString index="19">
            449 hmoveto
            -82 callsubr
            -438 hlineto
            7 -46 callsubr
            return
          </CharString>
          <CharString index="20">
            -20 hstem
            37 19 callsubr
            vstem
            37 -107 callsubr
            return
          </CharString>
          <CharString index="21">
            -43 callsubr
            165 103 153 154 122 -70 93 -128 -20 callsubr
            vhcurveto
            return
          </CharString>
          <CharString index="22">
            140 60 210 173 124 35 -107 -107 -140 -58 -210 -175 -124 -35 109 105 vhcurveto
            return
          </CharString>
          <CharString index="23">
            41 35 -29 56 hhcurveto
            40 30 18 19 20 hvcurveto
            12 11 10 13 9 14 -46 31 rcurveline
            -13 -19 -18 -14 -19 hhcurveto
            return
          </CharString>
          <CharString index="24">
            -20 hstem
            51 132 -96 callsubr
            return
          </CharString>
          <CharString index="25">
            13 99 rlineto
            -292 hlineto
            30 228 rlineto
            224 -15 callsubr
            -224 hlineto
            28 207 rlineto
            293 -15 callsubr
            return
          </CharString>
          <CharString index="26">
            -93 callsubr
            endchar
          </CharString>
          <CharString index="27">
            -70 callsubr
            7 1 32 callsubr
            hvcurveto
            -36 callsubr
            return
          </CharString>
          <CharString index="28">
            hstem
            0 callsubr
            vstem
            -89 callsubr
            return
          </CharString>
          <CharString index="29">
            12 19 29 hvcurveto
            -17 63 rlineto
            -5 -13 -22 -7 -13 hhcurveto
            return
          </CharString>
          <CharString index="30">
            59 callsubr
            hintmask 10101100
            -73 callsubr
            hintmask 01011100
            -103 callsubr
            hintmask 10101100
            -100 callsubr
            return
          </CharString>
          <CharString index="31">
            rmoveto
            78 31 153 101 69 15 -66 -57 -81 -25 -156 -107 -69 -15 73 56 vhcurveto
            return
          </CharString>
          <CharString index="32">
            77 callsubr
            hintmask 10111000
            -52 callsubr
            hintmask 01111000
            -80 callsubr
            hintmask 10111000
            -74 callsubr
            return
          </CharString>
          <CharString index="33">
            -25 callsubr
            9 1 68 callsubr
            hvcurveto
            -59 callsubr
            return
          </CharString>
          <CharString index="34">
            -61 callsubr
            49 58 19 52 39 vhcurveto
            4 hlineto
            return
          </CharString>
          <CharString index="35">
            rmoveto
            111 24 80 36 31 hhcurveto
            27 12 -14 -20 -60 -68 -50 -106 -3 hvcurveto
            return
          </CharString>
          <CharString index="36">
            -32 -37 28 -54 hhcurveto
            -45 -32 -19 -19 -21 hvcurveto
            -12 -11 -11 -13 -9 -14 rrcurveto
            return
          </CharString>
          <CharString index="37">
            -39 8 33 -29 41 hhcurveto
            33 46 -78 callsubr
            -21 -4 19 17 return
          </CharString>
          <CharString index="38">
            165 rlineto
            -145 hlineto
            return
          </CharString>
          <CharString index="39">
            -91 callsubr
            269 308 -62 callsubr
            return
          </CharString>
          <CharString index="40">
            rmoveto
            103 hlineto
            -109 -69 callsubr
            return
          </CharString>
          <CharString index="41">
            20 9 18 11 15 13 -42 83 rcurveline
            -26 -34 -55 -35 -55 hhcurveto
            -52 return
          </CharString>
          <CharString index="42">
            18 callsubr
            193 -87 callsubr
            return
          </CharString>
          <CharString index="43">
            37 callsubr
            224 -83 callsubr
            return
          </CharString>
          <CharString index="44">
            hstem
            83 144 119 143 vstem
            -7 49 rmoveto
            -43 64 79 -18 76 hhcurveto
            148 129 97 155 hvcurveto
            194 -262 -11 127 vvcurveto
            62 52 36 57 46 64 -23 -33 33 vhcurveto
            59 92 rlineto
            34 -40 -85 26 -51 hhcurveto
            -148 -131 -67 -163 hvcurveto
            -187 263 8 -131 vvcurveto
            -73 -64 -47 -69 -60 -57 29 44 -40 vhcurveto
            return
          </CharString>
          <CharString index="45">
            rmoveto
            37 84 25 81 33 85 11 -84 8 -82 15 -84 rrcurveto
            return
          </CharString>
          <CharString index="46">
            16 197 rmoveto
            -108 51 -101 120 return
          </CharString>
          <CharString index="47">
            hstem
            37 128 53 127 vstem
            -16 32 rmoveto
            -27 43 58 -17 51 hhcurveto
            108 101 61 123 hvcurveto
            140 -180 -22 79 vvcurveto
            40 36 17 36 32 34 -8 -23 23 vhcurveto
            52 84 rlineto
            21 -39 -53 10 -44 hhcurveto
            -104 -101 -50 -118 hvcurveto
            -133 181 22 -84 vvcurveto
            -47 -37 -29 -43 -39 -32 23 20 -31 vhcurveto
            return
          </CharString>
          <CharString index="48">
            43 328 27 callsubr
            -44 -40 -307 rlineto
            -2 -12 -1 -12 -11 vvcurveto
            return
          </CharString>
          <CharString index="49">
            -20 -98 callsubr
            return
          </CharString>
          <CharString index="50">
            -56 -126 -153 -19 hvcurveto
            -79 hlineto
            -10 -83 rlineto
            79 hlineto
            -61 -449 rlineto
            -51 -8 -16 -65 -61 hhcurveto
            -23 -34 16 15 -16 hvcurveto
            -48 -66 rlineto
            endchar
          </CharString>
          <CharString index="51">
            rmoveto
            98 hlineto
            116 145 rlineto
            -76 hlineto
            -79 -74 -60 74 rlineto
            -78 hlineto
            endchar
          </CharString>
          <CharString index="52">
            93 -45 67 -99 -136 -62 -127 -121 vhcurveto
            103 -2 rmoveto
            52 16 119 69 44 7 -29 callsubr
            return
          </CharString>
          <CharString index="53">
            330 rmoveto
            -43 -330 rlineto
            130 hlineto
            44 327 263 405 rlineto
            -130 hlineto
            -171 -260 -96 260 rlineto
            -146 hlineto
            return
          </CharString>
          <CharString index="54">
            246 rmoveto
            10 79 rlineto
            -102 hlineto
            54 407 rlineto
            -80 hlineto
            -44 -21 -44 -17 -35 -12 -20 -7 -19 -7 -17 -5 14 -70 rcurveline
            123 35 -40 -303 53 callsubr
            -10 -79 rlineto
            329 -273 9 callsubr
            return
          </CharString>
          <CharString index="55">
            28 111 rmoveto
            -83 45 -39 81 55 67 25 45 35 vhcurveto
            4 hlineto
            return
          </CharString>
          <CharString index="56">
            hhcurveto
            -173 -96 -160 -152 hvcurveto
            return
          </CharString>
          <CharString index="57">
            -12 hvcurveto
            -43 -324 rlineto
            125 -13 callsubr
            -55 -57 -32 -35 -41 vhcurveto
            -44 callsubr
            return
          </CharString>
          <CharString index="58">
            -8 callsubr
            80 callsubr
            -88 callsubr
            return
          </CharString>
          <CharString index="59">
            83 197 82 hstem
            -161 -186 rmoveto
            -33 28 69 -11 40 hhcurveto
            117 49 75 108 16 hvcurveto
            62 461 rlineto
            return
          </CharString>
          <CharString index="60">
            -72 callsubr
            endchar
          </CharString>
          <CharString index="61">
            -61 -90 -671 rlineto
            return
          </CharString>
          <CharString index="62">
            hlineto
            6 -46 callsubr
            return
          </CharString>
          <CharString index="63">
            21 -1 22 -7 21 vhcurveto
            -121 -15 rlineto
            13 -20 1 -36 -23 vvcurveto
            -20 -1 -19 -2 -19 vhcurveto
            -48 -356 rlineto
            return
          </CharString>
          <CharString index="64">
            16 203 rmoveto
            -122 70 -93 128 return
          </CharString>
          <CharString index="65">
            35 -12 83 -59 -21 436 82 -9 -20 return
          </CharString>
          <CharString index="66">
            295 rmoveto
            -178 96 -128 187 return
          </CharString>
          <CharString index="67">
            rlineto
            -144 -45 callsubr
            return
          </CharString>
          <CharString index="68">
            -47 95 rlineto
            -44 -49 -55 -31 -68 hhcurveto
            -124 -40 137 101 141 70 188 168 51 61 -23 -43 31 hvcurveto
            81 92 rlineto
            51 -48 -100 20 -68 hhcurveto
            -248 -141 -224 -229 hvcurveto
            endchar
          </CharString>
          <CharString index="69">
            rmoveto
            -59 48 -48 59 59 49 48 59 59 -49 48 -59 -59 -48 -48 -59 vhcurveto
            66 hmoveto
            23 18 17 23 21 return
          </CharString>
          <CharString index="70">
            15 callsubr
            -55 callsubr
            return
          </CharString>
          <CharString index="71">
            54 367 rlineto
            -128 hlineto
            6 -44 -19 -146 rlineto
            return
          </CharString>
          <CharString index="72">
            97 732 -40 callsubr
            return
          </CharString>
          <CharString index="73">
            -48 callsubr
            118 hlineto
            11 83 rlineto
            -118 hlineto
            69 11 28 128 93 hhcurveto
            return
          </CharString>
          <CharString index="74">
            157 hmoveto
            -35 callsubr
            return
          </CharString>
          <CharString index="75">
            -31 callsubr
            54 return
          </CharString>
          <CharString index="76">
            19 17 7 -23 callsubr
            return
          </CharString>
          <CharString index="77">
            -247 -137 -220 -228 return
          </CharString>
          <CharString index="78">
            -44 -35 -52 -16 -120 -69 -44 -7 45 35 vhcurveto
            return
          </CharString>
          <CharString index="79">
            -3 39 callsubr
            -124 hlineto
            3 -54 -59 -443 rlineto
            return
          </CharString>
          <CharString index="80">
            -38 callsubr
            19 -17 -23 -23 -17 47 callsubr
          </CharString>
          <CharString index="81">
            45 -36 12 18 vvcurveto
            23 37 41 19 13 vhcurveto
            -35 40 rlineto
            -64 -40 -77 -74 -80 vvcurveto
            return
          </CharString>
          <CharString index="82">
            -76 -11 -34 -147 -88 hhcurveto
            -39 -10 23 35 return
          </CharString>
          <CharString index="83">
            114 46 115 return
          </CharString>
          <CharString index="84">
            1 32 callsubr
            hvcurveto
            return
          </CharString>
          <CharString index="85">
            245 -502 rlineto
            107 hlineto
            99 737 rlineto
            -111 hlineto
            -57 -428 -3 -25 2 -27 -3 -25 rlinecurve
            -29 66 -216 439 rlineto
            -159 hlineto
            5 -61 rlineto
            return
          </CharString>
          <CharString index="86">
            94 21 -21 210 98 424 -20 return
          </CharString>
          <CharString index="87">
            -164 -104 -154 -153 return
          </CharString>
          <CharString index="88">
            hhcurveto
            61 49 16 17 35 hvcurveto
            -66 callsubr
            -44 38 80 -5 hvcurveto
            240 3 63 120 77 vvcurveto
            return
          </CharString>
          <CharString index="89">
            11 -21 -24 3 -24 hhcurveto
            -136 -63 -127 -121 hvcurveto
            104 -2 rmoveto
            52 15 119 69 44 8 -29 callsubr
            return
          </CharString>
          <CharString index="90">
            470 -21 283 -20 hstem
            81 542 rmoveto
            5 -29 13 -58 -6 vvcurveto
            21 10 callsubr
            -24 -173 rlineto
            return
          </CharString>
          <CharString index="91">
            138 hmoveto
            -28 callsubr
            return
          </CharString>
          <CharString index="92">
            hlineto
            13 99 rlineto
            return
          </CharString>
          <CharString index="93">
            hstem
            366 hmoveto
            11 84 rlineto
            -239 hlineto
            273 351 rlineto
            62 -348 vlineto
            -11 -83 rlineto
            201 hlineto
            -270 -353 rlineto
            -61 vlineto
            return
          </CharString>
          <CharString index="94">
            hlineto
            -3 54 38 282 rlineto
            2 16 1 17 18 vvcurveto
            83 -37 41 -84 return
          </CharString>
          <CharString index="95">
            21 -1 callsubr
            return
          </CharString>
          <CharString index="96">
            -20 hstem
            -91 callsubr
            return
          </CharString>
          <CharString index="97">
            8 callsubr
            16 -62 rlineto
            17 callsubr
            21 32 return
          </CharString>
          <CharString index="98">
            3 callsubr
            -30 34 -47 -41 -38 -34 -45 vhcurveto
            return
          </CharString>
          <CharString index="99">
            9 0 99 228 46 callsubr
            return
          </CharString>
          <CharString index="100">
            -36 28 callsubr
            147 84 return
          </CharString>
          <CharString index="101">
            -278 -113 -21 273 -20 hstemhm
            5 5 callsubr
            hintmask 11100000
            18 30 callsubr
            return
          </CharString>
          <CharString index="102">
            rmoveto
            29 19 27 30 35 hhcurveto
            hintmask 10100000
            55 72 -70 89 hhcurveto
            60 56 50 52 26 hvcurveto
            -70 45 rlineto
            -29 -19 -27 -30 -35 hhcurveto
            return
          </CharString>
          <CharString index="103">
            hmoveto
            14 99 rlineto
            -330 hlineto
            397 560 rlineto
            73 -467 vlineto
            -13 -99 rlineto
            296 hlineto
            -394 -551 rlineto
            -82 vlineto
            return
          </CharString>
          <CharString index="104">
            -62 callsubr
            endchar
          </CharString>
          <CharString index="105">
            36 callsubr
            166 162 rmoveto
            77 11 -99 159 141 158 -75 14 -176 -172 rlineto
            return
          </CharString>
          <CharString index="106">
            -21 732 -20 return
          </CharString>
          <CharString index="107">
            16 125 216 125 return
          </CharString>
          <CharString index="108">
            15 -11 95 -72 -21 506 -20 return
          </CharString>
          <CharString index="109">
            120 77 vvcurveto
            78 -68 38 -85 return
          </CharString>
          <CharString index="110">
            rmoveto
            64 40 77 74 80 vvcurveto
            43 return
          </CharString>
          <CharString index="111">
            -18 vvcurveto
            -24 -37 -38 -19 -16 vhcurveto
            return
          </CharString>
          <CharString index="112">
            156 -120 120 return
          </CharString>
          <CharString index="113">
            -24 callsubr
            vstem
            return
          </CharString>
          <CharString index="114">
            79 -50 50 -50 78 hstemhm
            return
          </CharString>
          <CharString index="115">
            rlineto
            35 -11 22 -8 -17 vvcurveto
            -32 -52 -5 -24 -3 vhcurveto
            return
          </CharString>
          <CharString index="116">
            rmoveto
            400 780 rlineto
            -80 hlineto
            -399 -780 rlineto
            return
          </CharString>
          <CharString index="117">
            hlineto
            3 8 49 100 2 vvcurveto
            24 173 rlineto
            -94 hlineto
            return
          </CharString>
          <CharString index="118">
            -19 -25 24 hvcurveto
            69 79 rlineto
            29 -37 -61 19 -47 hhcurveto
            -169 -106 -146 -167 hvcurveto
            endchar
          </CharString>
          <CharString index="119">
            21 -21 497 -20 return
          </CharString>
          <CharString index="120">
            -76 callsubr
            endchar
          </CharString>
          <CharString index="121">
            34 34 43 43 -35 35 -43 -43 -34 -34 -44 vhcurveto
            return
          </CharString>
          <CharString index="122">
            rmoveto
            -93 44 -68 100 136 62 128 121 return
          </CharString>
          <CharString index="123">
            rmoveto
            -43 35 -35 43 43 34 34 44 43 -34 34 return
          </CharString>
          <CharString index="124">
            76 11 82 24 73 vvcurveto
            39 -27 20 -23 11 vhcurveto
            return
          </CharString>
          <CharString index="125">
            218 -11 95 564 95 return
          </CharString>
          <CharString index="126">
            140 392 141 return
          </CharString>
          <CharString index="127">
            3 -12 80 360 82 return
          </CharString>
          <CharString index="128">
            57 465 rmoveto
            -93 45 -68 99 136 63 129 121 31 -5 32 -15 28 vhcurveto
            return
          </CharString>
          <CharString index="129">
            hlineto
            41 306 rlineto
            -107 hlineto
            -259 -333 rlineto
            -52 vlineto
            191 182 rmoveto
            34 return
          </CharString>
          <CharString index="130">
            5 65 rmoveto
            -43 34 -34 43 44 14 callsubr
            return
          </CharString>
          <CharString index="131">
            -41 -38 -33 -47 vhcurveto
            hintmask 11010000
            25 callsubr
            endchar
          </CharString>
          <CharString index="132">
            -45 36 -11 -19 vvcurveto
            -25 -38 -36 -18 -16 vhcurveto
            return
          </CharString>
          <CharString index="133">
            -45 36 -12 4 callsubr
            return
          </CharString>
          <CharString index="134">
            rlineto
            -127 hlineto
            5 return
          </CharString>
          <CharString index="135">
            -12 88 118 85 return
          </CharString>
          <CharString index="136">
            16 callsubr
            -43 -44 -34 -34 -43 vhcurveto
            return
          </CharString>
          <CharString index="137">
            -134 rmoveto
            63 40 80 76 80 vvcurveto
            43 return
          </CharString>
          <CharString index="138">
            -12 callsubr
            hstem
            return
          </CharString>
          <CharString index="139">
            7 1 7 return
          </CharString>
          <CharString index="140">
            130 hmoveto
            49 361 rlineto
            20 20 59 33 31 hhcurveto
            37 13 -19 -35 return
          </CharString>
          <CharString index="141">
            -43 34 -34 43 43 34 34 43 43 -34 35 -43 -43 -34 -35 -43 vhcurveto
            return
          </CharString>
          <CharString index="142">
            488 60 callsubr
            return
          </CharString>
          <CharString index="143">
            183 -21 342 -20 hstem
            return
          </CharString>
          <CharString index="144">
            154 -11 95 648 -20 return
          </CharString>
          <CharString index="145">
            -248 -12 callsubr
            return
          </CharString>
          <CharString index="146">
            55 59 442 rlineto
            return
          </CharString>
          <CharString index="147">
            -11 hvcurveto
            3 -58 rlineto
            3 3 0 1 3 hvcurveto
            7 6 1 11 hhcurveto
            return
          </CharString>
          <CharString index="148">
            134 hmoveto
            67 497 3 21 -1 23 1 23 rlinecurve
            31 -67 rlineto
            return
          </CharString>
          <CharString index="149">
            3 callsubr
            -32 34 -45 -41 -38 -34 -45 vhcurveto
            return
          </CharString>
          <CharString index="150">
            -241 -95 -21 861 -20 hstem
            87 98 vstem
            185 -116 rmoveto
            return
          </CharString>
          <CharString index="151">
            rmoveto
            180 170 -128 172 return
          </CharString>
          <CharString index="152">
            -43 32 -34 45 41 38 32 47 vhcurveto
            return
          </CharString>
          <CharString index="153">
            99 207 99 return
          </CharString>
          <CharString index="154">
            -18 -23 -23 -18 18 23 vhcurveto
            endchar
          </CharString>
          <CharString index="155">
            hstemhm
            16 121 return
          </CharString>
          <CharString index="156">
            hlineto
            -393 -657 rlineto
            67 hlineto
            424 711 rlineto
            return
          </CharString>
          <CharString index="157">
            771 -67 callsubr
            return
          </CharString>
          <CharString index="158">
            131 142 rlineto
            -135 hlineto
            -89 -142 rlineto
            return
          </CharString>
          <CharString index="159">
            rmoveto
            13 16 19 12 17 hhcurveto
            return
          </CharString>
          <CharString index="160">
            rlineto
            -126 hlineto
            return
          </CharString>
          <CharString index="161">
            732 rlineto
            return
          </CharString>
          <CharString index="162">
            -140 -19 return
          </CharString>
          <CharString index="163">
            -55 -72 70 -89 hhcurveto
            -61 -54 -50 -52 -27 hvcurveto
            return
          </CharString>
          <CharString index="164">
            hlineto
            29 218 rlineto
            -89 hlineto
            -29 -218 rlineto
            return
          </CharString>
          <CharString index="165">
            -54 -95 -715 rlineto
            endchar
          </CharString>
          <CharString index="166">
            -20 48 callsubr
            return
          </CharString>
          <CharString index="167">
            -21 271 -20 hstemhm
            return
          </CharString>
          <CharString index="168">
            -20 hstem
            0 callsubr
            vstem
            return
          </CharString>
          <CharString index="169">
            -28 -208 rlineto
            89 hlineto
            28 208 rlineto
            return
          </CharString>
          <CharString index="170">
            rmoveto
            8 58 rlineto
            -227 hlineto
            -8 -58 rlineto
            return
          </CharString>
          <CharString index="171">
            -230 80 647 -20 return
          </CharString>
          <CharString index="172">
            0 99 633 -20 hstem
            return
          </CharString>
          <CharString index="173">
            rmoveto
            88 -498 -88 vlineto
            return
          </CharString>
          <CharString index="174">
            hstemhm
            28 120 return
          </CharString>
          <CharString index="175">
            9 1 9 return
          </CharString>
          <CharString index="176">
            -14 98 -158 -145 -159 rlineto
            return
          </CharString>
          <CharString index="177">
            -218 -132 59 746 59 hstem
            return
          </CharString>
          <CharString index="178">
            -4 79 -66 -21 316 79 -57 79 return
          </CharString>
          <CharString index="179">
            -203 -125 -21 889 -20 hstem
            return
          </CharString>
          <CharString index="180">
            114 hstem
            return
          </CharString>
          <CharString index="181">
            hhcurveto
            -59 -14 57 72 hvcurveto
            endchar
          </CharString>
          <CharString index="182">
            0 99 534 99 return
          </CharString>
          <CharString index="183">
            21 -21 414 97 return
          </CharString>
          <CharString index="184">
            -20 67 callsubr
            return
          </CharString>
          <CharString index="185">
            hlineto
            14 99 rlineto
            return
          </CharString>
          <CharString index="186">
            -89 -671 rlineto
            return
          </CharString>
          <CharString index="187">
            204 -20 hstem
            return
          </CharString>
        <CharString name=".notdef">
          489 endchar
        </CharString>
        <CharString name="A">
          94 21 -21 210 98 424 -20 hstem
          -68 callsubr
          endchar
        </CharString>
        <CharString name="AE">
          348 0 99 111 98 19 46 callsubr
          hstem
          67 hmoveto
          137 210 rlineto
          205 hlineto
          -30 -210 rlineto
          405 78 callsubr
          -267 hlineto
          32 228 rlineto
          215 78 callsubr
          -215 hlineto
          29 207 rlineto
          267 78 callsubr
          -514 hlineto
          5 -62 -433 -670 rlineto
          484 562 rmoveto
          37 71 -44 -325 rlineto
          -154 hlineto
          endchar
        </CharString>
        <CharString name="Aacute">
          -21 callsubr
          224 -20 hstem
          -68 callsubr
          37 463 -90 callsubr
        </CharString>
        <CharString name="Acircumflex">
          -21 callsubr
          204 -11 callsubr
          328 771 -93 callsubr
          17 -463 -3 callsubr
        </CharString>
        <CharString name="Adieresis">
          -21 callsubr
          51 73 callsubr
          223 6 callsubr
          -91 callsubr
          261 820 -97 callsubr
          8 -512 -62 callsubr
          23 512 rmoveto
          -99 callsubr
        </CharString>
        <CharString name="Agrave">
          -21 callsubr
          224 -11 callsubr
          358 50 callsubr
          62 -628 -3 callsubr
        </CharString>
        <CharString name="Aring">
          -21 callsubr
          51 66 81 67 hstem
          264 66 81 68 vstem
          -68 callsubr
          -96 562 -27 callsubr
        </CharString>
        <CharString name="Atilde">
          -21 callsubr
          52 7 callsubr
          hintmask 11101000
          -91 callsubr
          268 768 52 callsubr
          hintmask 11110000
          -84 callsubr
          hintmask 11100100
          -71 callsubr
          51 -487 -3 callsubr
        </CharString>
        <CharString name="B">
          76 0 99 248 99 187 99 hstemhm
          412 136 -136 152 hintmask 11110000
          269 hmoveto
          140 139 73 156 90 -65 64 -85 16 hvcurveto
          hintmask 11101000
          95 13 71 82 95 vvcurveto
          117 -111 26 -95 vhcurveto
          -248 -45 callsubr
          178 347 rmoveto
          74 hlineto
          68 66 -32 -76 -81 -56 -59 -83 hvcurveto
          -102 hlineto
          71 534 rmoveto
          94 hlineto
          49 38 -19 -55 -61 -45 -52 -64 hvcurveto
          -97 hlineto
          endchar
        </CharString>
        <CharString name="C">
          97 -12 94 567 97 hstem
          37 143 vstem
          37 293 rmoveto
          -183 97 -122 190 93 67 26 48 79 vhcurveto
          -39 callsubr
        </CharString>
        <CharString name="Ccedilla">
          97 -199 -21 869 97 hstem
          37 143 115 98 vstem
          37 293 rmoveto
          -171 84 -116 166 -16 vhcurveto
          -49 -72 -10 callsubr
          73 7 58 24 68 41 rlinecurve
          -39 callsubr
        </CharString>
        <CharString name="D">
          172 75 callsubr
          hstem
          520 142 vstem
          273 hmoveto
          244 145 207 228 184 -106 113 -184 hvcurveto
          -263 hlineto
          7 -46 callsubr
          216 633 rmoveto
          108 hlineto
          125 45 -98 -112 -147 -69 -177 -170 hvcurveto
          -110 hlineto
          endchar
        </CharString>
        <CharString name="E">
          -8 callsubr
          hstem
          -88 callsubr
          endchar
        </CharString>
        <CharString name="Eacute">
          -49 callsubr
          362 771 -90 callsubr
        </CharString>
        <CharString name="Ecircumflex">
          -8 callsubr
          184 -20 hstem
          -88 callsubr
          248 771 -81 callsubr
        </CharString>
        <CharString name="Edieresis">
          -8 callsubr
          32 73 callsubr
          206 6 callsubr
          -88 callsubr
          180 821 -106 callsubr
        </CharString>
        <CharString name="Egrave">
          -49 callsubr
          279 50 callsubr
          endchar
        </CharString>
        <CharString name="Eth">
          188 0 99 225 88 221 99 hstem
          536 142 vstem
          85 324 rmoveto
          -43 -324 rlineto
          247 hlineto
          91 85 27 68 75 hvcurveto
          96 88 42 134 118 vvcurveto
          180 -103 117 -188 vhcurveto
          -263 hlineto
          -4 7 -51 -5 vvcurveto
          -34 -260 rlineto
          -79 hlineto
          -11 -88 rlineto
          209 hmoveto
          143 hlineto
          12 88 rlineto
          -143 hlineto
          29 221 rlineto
          109 hlineto
          125 45 -99 -112 -156 -75 -167 -164 hvcurveto
          -111 hlineto
          endchar
        </CharString>
        <CharString name="Euro">
          15 -12 84 101 47 62 47 96 85 hstem
          89 173 rmoveto
          -121 9 77 -64 113 hhcurveto
          67 44 16 31 60 hvcurveto
          -37 86 rlineto
          -27 -35 -29 -22 -41 hhcurveto
          -60 -32 44 57 -8 hvcurveto
          161 hlineto
          7 47 rlineto
          -170 hlineto
          20 4 22 4 20 vhcurveto
          170 hlineto
          6 47 rlineto
          -161 hlineto
          47 18 43 49 51 hhcurveto
          39 25 -15 -24 27 hvcurveto
          67 76 rlineto
          29 -35 -55 19 -47 hhcurveto
          -123 -92 -64 -117 -44 hvcurveto
          -76 hlineto
          -6 -47 rlineto
          69 hlineto
          -5 -21 -3 -21 -1 -20 rrcurveto
          -68 hlineto
          -7 -47 rlineto
          endchar
        </CharString>
        <CharString name="F">
          -39 21 -21 327 46 callsubr
          hstem
          157 hmoveto
          44 327 rlineto
          203 -15 callsubr
          -203 hlineto
          28 207 rlineto
          262 -15 callsubr
          -407 -45 callsubr
          endchar
        </CharString>
        <CharString name="G">
          180 -11 96 -65 -21 303 88 260 94 hstemhm
          37 141 hintmask 10111000
          37 284 rmoveto
          -168 84 -127 180 89 62 27 59 68 vhcurveto
          hintmask 01111000
          21 -76 rlineto
          68 hlineto
          11 132 19 128 19 131 rrcurveto
          -277 hlineto
          -11 -88 rlineto
          144 hlineto
          -8 -62 rlineto
          hintmask 10111000
          -80 -11 -66 -75 -93 hhcurveto
          -123 -35 122 101 154 71 188 180 77 32 -18 -49 57 hvcurveto
          80 82 rlineto
          59 -51 -109 20 -73 hhcurveto
          -261 -144 -216 -244 hvcurveto
          endchar
        </CharString>
        <CharString name="H">
          176 21 -21 327 99 306 -20 hstem
          157 hmoveto
          43 327 rlineto
          292 hlineto
          -44 -327 rlineto
          132 hlineto
          98 54 callsubr
          -132 hlineto
          -41 -306 rlineto
          -292 hlineto
          41 306 -40 callsubr
          endchar
        </CharString>
        <CharString name="I">
          38 callsubr
          hstem
          -33 callsubr
          endchar
        </CharString>
        <CharString name="Iacute">
          38 callsubr
          224 -20 hstem
          -33 callsubr
          204 771 -90 callsubr
        </CharString>
        <CharString name="Icircumflex">
          38 callsubr
          80 callsubr
          -33 callsubr
          96 771 -81 callsubr
        </CharString>
        <CharString name="Idieresis">
          38 callsubr
          51 73 callsubr
          58 6 callsubr
          -33 callsubr
          32 820 -106 callsubr
        </CharString>
        <CharString name="Igrave">
          38 callsubr
          224 -20 hstem
          153 50 callsubr
          155 -936 rmoveto
          -35 callsubr
          endchar
        </CharString>
        <CharString name="J">
          -248 -230 91 871 -20 hstem
          -215 -186 rmoveto
          -27 39 56 -17 47 hhcurveto
          200 20 154 157 21 hvcurveto
          86 651 rlineto
          -144 hlineto
          6 -61 -84 -624 rlineto
          -64 -8 -21 -122 -82 hhcurveto
          -27 -30 17 19 -17 hvcurveto
          -62 -83 rlineto
          endchar
        </CharString>
        <CharString name="K">
          47 31 callsubr
          157 hmoveto
          50 377 169 -377 rlineto
          154 hlineto
          -185 387 258 345 rlineto
          -141 hlineto
          -255 -349 47 349 -40 callsubr
          endchar
        </CharString>
        <CharString name="L">
          -33 65 callsubr
          430 hmoveto
          13 99 rlineto
          -272 hlineto
          84 633 rlineto
          -144 hlineto
          5 -46 callsubr
          endchar
        </CharString>
        <CharString name="Lslash">
          -25 65 callsubr
          66 245 rmoveto
          -33 -245 rlineto
          405 -15 callsubr
          -273 hlineto
          28 210 199 91 13 98 -199 -92 43 326 rlineto
          -144 hlineto
          -5 4 -47 -8 vvcurveto
          -44 -330 -66 -30 -11 -97 rlineto
          endchar
        </CharString>
        <CharString name="M">
          332 20 -21 22 -1 callsubr
          hstemhm
          hintmask 01100000
          135 hmoveto
          67 496 3 24 0 25 1 23 rlinecurve
          3 -29 8 -34 3 -9 rrcurveto
          hintmask 10100000
          109 -497 rlineto
          88 hlineto
          236 497 12 24 9 24 11 24 rlinecurve
          -4 -23 -7 -25 -3 -24 rrcurveto
          hintmask 01100000
          -66 -496 rlineto
          131 hlineto
          98 54 callsubr
          -187 hlineto
          -200 -425 -19 -37 -10 -36 -13 -44 rlinecurve
          -3 41 1 40 -9 40 -92 421 rcurveline
          -192 hlineto
          5 -61 79 callsubr
          endchar
        </CharString>
        <CharString name="N">
          184 16 -21 26 -1 callsubr
          hstemhm
          hintmask 01100000
          41 callsubr
          hintmask 10100000
          -22 callsubr
          hintmask 01100000
          79 callsubr
          endchar
        </CharString>
        <CharString name="NULL">
          -511 endchar
        </CharString>
        <CharString name="Ntilde">
          184 16 -21 26 -1 callsubr
          51 7 callsubr
          hintmask 01110000
          41 callsubr
          hintmask 10110000
          -22 callsubr
          hintmask 01101000
          79 callsubr
          270 767 52 callsubr
          hintmask 10110000
          -84 callsubr
          hintmask 10100100
          -71 callsubr
          endchar
        </CharString>
        <CharString name="O">
          220 -11 95 564 95 hstem
          38 19 callsubr
          vstem
          38 -107 callsubr
          endchar
        </CharString>
        <CharString name="OE">
          501 -11 95 -95 110 -78 -21 327 46 callsubr
          -84 84 11 -20 hstemhm
          38 140 hintmask 01011001
          38 -41 callsubr
          80 62 18 61 64 vhcurveto
          hintmask 00111001
          -9 -68 rlineto
          423 hlineto
          hintmask 01011001
          -82 callsubr
          -423 hlineto
          -9 -65 rlineto
          hintmask 10010011
          53 -49 -57 23 -79 hhcurveto
          -30 callsubr
          hvcurveto
          140 3 rmoveto
          hintmask 10010101
          -85 callsubr
          endchar
        </CharString>
        <CharString name="Oacute">
          -65 callsubr
          306 473 -90 callsubr
        </CharString>
        <CharString name="Ocircumflex">
          18 callsubr
          173 -87 callsubr
          188 473 -81 callsubr
        </CharString>
        <CharString name="Odieresis">
          18 callsubr
          20 114 hstemhm
          37 140 126 -24 callsubr
          -9 141 hintmask 11111010
          37 -107 callsubr
          126 522 -97 callsubr
          hintmask 11111100
          -94 callsubr
        </CharString>
        <CharString name="Ograve">
          -65 callsubr
          213 473 -67 callsubr
          endchar
        </CharString>
        <CharString name="Oslash">
          220 -45 -21 55 95 564 95 27 -20 hstem
          38 19 callsubr
          vstem
          99 -66 rmoveto
          71 91 rlineto
          -23 41 49 -13 60 hhcurveto
          250 141 221 229 81 -19 69 -39 52 hvcurveto
          58 74 -71 55 -54 -68 rlineto
          27 -43 -55 14 -66 hhcurveto
          -30 callsubr
          -84 21 -74 43 -53 hvcurveto
          -74 -95 rlineto
          150 309 rmoveto
          140 60 210 173 45 34 -15 -23 24 vhcurveto
          -323 -412 rlineto
          -9 30 -4 33 37 vvcurveto
          382 225 rmoveto
          7 -28 3 -30 -31 vvcurveto
          -140 -58 -210 -175 -41 -31 12 20 -24 vhcurveto
          endchar
        </CharString>
        <CharString name="Otilde">
          18 callsubr
          21 7 callsubr
          37 19 callsubr
          hintmask 11010110
          37 -107 callsubr
          123 470 52 callsubr
          hintmask 11100110
          -84 callsubr
          hintmask 11001110
          -71 callsubr
          endchar
        </CharString>
        <CharString name="P">
          38 21 -21 294 97 242 99 hstem
          417 139 vstem
          157 hmoveto
          39 294 rlineto
          77 hlineto
          159 124 80 167 137 -106 54 -119 hvcurveto
          -221 -45 callsubr
          216 633 rmoveto
          81 hlineto
          61 33 -34 -61 -76 -45 -71 -82 hvcurveto
          -80 hlineto
          endchar
        </CharString>
        <CharString name="Q">
          219 -216 94 770 96 hstem
          37 141 393 139 vstem
          37 290 rmoveto
          -155 68 -106 155 -37 vhcurveto
          40 -11 38 -4 39 -19 rrcurveto
          -63 135 170 -111 152 hhcurveto
          96 73 25 31 87 hvcurveto
          -24 73 rlineto
          -13 -49 -82 -22 -49 hhcurveto
          -127 -162 88 61 -109 hvcurveto
          148 78 74 166 162 vvcurveto
          179 -96 132 -189 -249 -139 -226 -228 vhcurveto
          141 7 rmoveto
          137 65 214 169 123 36 -112 -104 -140 -63 -207 -171 -123 -36 108 104 vhcurveto
          endchar
        </CharString>
        <CharString name="R">
          73 21 -21 632 100 hstem
          419 139 vstem
          157 hmoveto
          44 326 rlineto
          52 hlineto
          149 -326 rlineto
          148 hlineto
          -166 347 rlineto
          99 24 75 80 101 vvcurveto
          125 -101 55 -108 vhcurveto
          -239 -45 callsubr
          215 632 rmoveto
          82 hlineto
          52 44 -27 -56 -92 -62 -33 -83 hvcurveto
          -60 hlineto
          endchar
        </CharString>
        <CharString name="S">
          26 -12 96 564 96 -63 callsubr
          -63 -108 rlineto
          endchar
        </CharString>
        <CharString name="Scaron">
          26 -12 96 564 96 173 -20 -63 callsubr
          239 615 -56 callsubr
        </CharString>
        <CharString name="T">
          32 21 -21 633 99 hstem
          247 633 rmoveto
          -84 -633 rlineto
          136 hlineto
          85 633 rlineto
          195 78 callsubr
          -525 hlineto
          -13 -99 rlineto
          endchar
        </CharString>
        <CharString name="Thorn">
          35 21 -21 179 97 242 99 -99 214 hstemhm
          400 141 hintmask 11101000
          156 hmoveto
          24 179 rlineto
          78 hlineto
          140 143 78 180 136 -102 44 -125 hvcurveto
          -74 hlineto
          hintmask 11011000
          15 115 rlineto
          -145 hlineto
          -6 5 -52 -3 vvcurveto
          79 callsubr
          200 518 rmoveto
          81 hlineto
          64 29 -36 -60 -84 -50 -62 -76 hvcurveto
          -80 hlineto
          endchar
        </CharString>
        <CharString name="U">
          156 -11 95 648 -20 hstem
          52 132 vstem
          52 -105 callsubr
          endchar
        </CharString>
        <CharString name="Uacute">
          -64 callsubr
          402 555 -90 callsubr
        </CharString>
        <CharString name="Ucircumflex">
          37 callsubr
          204 -83 callsubr
          285 555 -81 callsubr
        </CharString>
        <CharString name="Udieresis">
          37 callsubr
          54 73 callsubr
          51 132 92 114 46 115 -96 callsubr
          224 607 -106 callsubr
        </CharString>
        <CharString name="Ugrave">
          -64 callsubr
          312 555 -67 callsubr
          endchar
        </CharString>
        <CharString name="V">
          75 20 -21 733 -20 hstem
          201 -1 rmoveto
          102 hlineto
          338 733 rlineto
          -124 hlineto
          -181 -395 -11 -23 -11 -33 -9 -29 rlinecurve
          -16 -52 -3 43 -3 24 -2 28 -3 19 rlinecurve
          -79 418 rlineto
          -139 hlineto
          endchar
        </CharString>
        <CharString name="W">
          399 19 -21 734 -20 hstem
          159 -2 rmoveto
          132 hlineto
          143 363 11 27 12 41 11 35 rlinecurve
          7 20 6 21 6 21 rrcurveto
          -18 0 -16 1 -15 vhcurveto
          3 -63 52 -416 rlineto
          134 hlineto
          284 734 rlineto
          -112 hlineto
          -152 -386 -11 -27 -12 -40 -11 -35 rlinecurve
          -17 -62 -2 47 -1 27 -1 30 -3 21 rlinecurve
          -54 425 rlineto
          -119 hlineto
          -155 -386 -11 -27 -11 -40 -9 -35 rlinecurve
          -15 -62 -3 48 -3 27 0 31 -3 21 rlinecurve
          -53 423 rlineto
          -137 hlineto
          endchar
        </CharString>
        <CharString name="X">
          60 31 callsubr
          97 hmoveto
          177 260 113 -260 rlineto
          151 hlineto
          -167 391 246 341 rlineto
          -145 hlineto
          -152 -222 -98 222 rlineto
          -151 hlineto
          154 -355 -274 -377 rlineto
          endchar
        </CharString>
        <CharString name="Y">
          33 31 callsubr
          207 -54 callsubr
          endchar
        </CharString>
        <CharString name="Yacute">
          52 -12 callsubr
          225 -20 hstem
          216 -54 callsubr
          327 40 -90 callsubr
        </CharString>
        <CharString name="Ydieresis">
          52 -12 callsubr
          54 73 callsubr
          216 6 callsubr
          216 -54 callsubr
          149 91 -106 callsubr
        </CharString>
        <CharString name="Z">
          36 75 callsubr
          hstem
          483 -4 callsubr
          endchar
        </CharString>
        <CharString name="Zcaron">
          67 75 callsubr
          184 -20 hstem
          498 -4 callsubr
          294 771 -56 callsubr
        </CharString>
        <CharString name="a">
          -42 callsubr
          hstemhm
          16 121 hintmask 10101000
          -73 callsubr
          hintmask 01011000
          -103 callsubr
          hintmask 10101000
          -100 callsubr
          endchar
        </CharString>
        <CharString name="aacute">
          -42 callsubr
          277 -77 callsubr
          211 395 -90 callsubr
        </CharString>
        <CharString name="acircumflex">
          -42 callsubr
          257 -77 callsubr
          109 395 -81 callsubr
        </CharString>
        <CharString name="acute">
          -276 611 -21 165 -20 hstem
          124 590 -90 callsubr
        </CharString>
        <CharString name="adieresis">
          -42 callsubr
          96 114 48 callsubr
          30 -24 callsubr
          hintmask 10101111
          -73 callsubr
          hintmask 01011111
          -103 callsubr
          hintmask 10101111
          -100 callsubr
          30 436 -106 callsubr
        </CharString>
        <CharString name="ae">
          265 28 callsubr
          148 82 1 59 callsubr
          487 123 hintmask 11011100
          -61 callsubr
          60 60 20 64 56 vhcurveto
          -53 35 59 -31 76 -19 callsubr
          79 -52 37 -83 -39 -76 -14 -70 -59 vhcurveto
          hintmask 11101100
          75 -45 -76 8 -101 callsubr
          313 82 -47 callsubr
        </CharString>
        <CharString name="agrave">
          -42 callsubr
          277 59 callsubr
          hintmask 10101100
          -73 callsubr
          hintmask 01011100
          -103 callsubr
          hintmask 10101100
          37 -35 -53 13 -32 -51 callsubr
          232 395 -67 callsubr
          40 -560 rmoveto
          -95 callsubr
          endchar
        </CharString>
        <CharString name="ampersand">
          220 -12 95 119 89 -89 110 -92 71 9 71 36 66 142 79 hstemhm
          69 132 -41 118 78 150 -96 96 -11 223 hintmask 1010011100010000
          69 182 rmoveto
          -131 88 -63 125 157 98 69 145 60 vhcurveto
          72 49 31 79 hvcurveto
          -78 hlineto
          -20 -1 -19 -13 -19 hhcurveto
          hintmask 1001111101000000
          -126 12 rlineto
          -65 -54 -27 -72 hvcurveto
          78 hlineto
          16 3 14 12 16 hhcurveto
          hintmask 1100111100010000
          19 9 -8 -17 -12 -10 -16 -5 -8 hvcurveto
          -51 -37 -60 -25 -64 hhcurveto
          -73 -45 38 76 48 16 47 29 39 hvcurveto
          -23 35 41 -8 41 hhcurveto
          hintmask 1100111010100000
          52 91 28 64 66 -69 15 -53 -36 -34 -7 -12 -35 hvcurveto
          -1 3 0 5 7 vvcurveto
          92 78 54 86 45 53 -28 -32 32 vhcurveto
          60 61 rlineto
          53 -48 -78 25 -69 hhcurveto
          -131 -146 -66 -149 -27 8 -28 13 -24 hvcurveto
          hintmask 1100111100100000
          -68 -53 -44 -77 -88 vvcurveto
          243 207 rmoveto
          12 21 22 6 24 hhcurveto
          12 19 -1 -15 -15 -40 -5 -11 -17 -16 6 12 -14 hvcurveto
          endchar
        </CharString>
        <CharString name="approxequal">
          87 79 88 -18 88 33 88 -18 88 hstemhm
          hintmask 01100000
          108 90 -5 callsubr
          hintmask 01010000
          56 callsubr
          70 146 -5 callsubr
          hintmask 10010000
          56 callsubr
          endchar
        </CharString>
        <CharString name="aring">
          -42 callsubr
          82 66 81 67 48 callsubr
          83 66 82 67 hintmask 1010111110000000
          -73 callsubr
          hintmask 0101111110000000
          -103 callsubr
          hintmask 1010111110000000
          -100 callsubr
          83 472 -38 callsubr
          20 -17 -23 -23 -18 47 callsubr
        </CharString>
        <CharString name="asciicircum">
          107 21 -21 498 -20 hstem
          136 hmoveto
          173 368 170 -368 rlineto
          91 hlineto
          -235 498 rlineto
          -52 hlineto
          -235 -498 rlineto
          endchar
        </CharString>
        <CharString name="asciitilde">
          30 194 90 -74 -21 75 20 -20 90 3 -20 hstemhm
          hintmask 01101000
          85 189 rmoveto
          31 13 27 44 36 hhcurveto
          hintmask 10001000
          72 56 -70 78 hhcurveto
          56 59 58 47 29 hvcurveto
          -60 58 rlineto
          -32 -16 -31 -41 -37 hhcurveto
          hintmask 01010000
          -53 -68 70 -85 hhcurveto
          -60 -55 -55 -55 -24 hvcurveto
          endchar
        </CharString>
        <CharString name="asterisk">
          -46 374 -21 388 -20 hstem
          217 531 rmoveto
          -127 -111 77 -64 90 138 52 -141 98 69 -99 106 161 27 -26 108 -145 -78 47 156 rlineto
          -111 hlineto
          7 -156 -130 74 -44 -107 rlineto
          endchar
        </CharString>
        <CharString name="at">
          292 -135 54 131 57 271 62 128 54 hstem
          29 64 132 91 391 64 vstem
          29 192 rmoveto
          -185 134 -142 188 35 33 4 9 31 vhcurveto
          -15 53 rlineto
          -8 -28 -28 -4 -28 hhcurveto
          -150 -108 118 155 182 132 194 213 147 122 -93 -164 -100 -50 -104 -78 -27 -10 19 36 16 8 69 11 63 hvcurveto
          5 37 7 41 7 45 rrcurveto
          -47 hlineto
          -17 -30 rlineto
          27 -23 -39 10 -24 hhcurveto
          -132 -73 -138 -96 -80 38 -76 90 35 50 18 39 29 hvcurveto
          -29 16 29 -27 63 hhcurveto
          122 74 135 125 197 -152 114 -181 -254 -155 -222 -208 hvcurveto
          287 14 rmoveto
          53 32 119 76 21 20 -10 -19 20 vhcurveto
          -105 -16 -23 -131 -76 hhcurveto
          -45 -9 46 47 hvcurveto
          endchar
        </CharString>
        <CharString name="atilde">
          -42 callsubr
          98 7 callsubr
          16 121 hintmask 10101001
          -73 callsubr
          hintmask 01011001
          -103 callsubr
          hintmask 10100101
          -100 callsubr
          56 385 rmoveto
          12 15 20 13 17 hhcurveto
          hintmask 10101001
          -84 callsubr
          hintmask 10100011
          -71 callsubr
          endchar
        </CharString>
        <CharString name="b">
          7 -11 82 355 84 258 -20 hstem
          366 121 vstem
          17 40 rmoveto
          -29 31 56 -22 65 hhcurveto
          200 118 160 152 121 -51 88 -120 -43 -46 -14 -36 -39 hvcurveto
          41 308 27 callsubr
          -55 rlineto
          33 -615 rmoveto
          4 0 3 1 3 vhcurveto
          33 246 rlineto
          34 29 52 38 40 hhcurveto
          51 20 -41 -60 -108 -66 -146 -118 -31 -11 8 19 hvcurveto
          endchar
        </CharString>
        <CharString name="backslash">
          9 31 callsubr
          355 hmoveto
          94 hlineto
          -270 54 callsubr
          -93 hlineto
          endchar
        </CharString>
        <CharString name="bar">
          43 callsubr
          861 -98 -861 vlineto
          endchar
        </CharString>
        <CharString name="braceleft">
          -208 -147 63 761 62 hstem
          44 108 vstem
          19 266 rmoveto
          39 -1 12 -34 -32 vvcurveto
          -7 0 -6 -1 -3 vhcurveto
          -22 -159 rlineto
          -2 -15 -1 -15 -13 vvcurveto
          -83 40 -45 92 vhcurveto
          43 hlineto
          9 63 rlineto
          -10 hlineto
          -51 -15 7 39 10 1 13 2 15 hvcurveto
          22 166 rlineto
          2 14 1 14 15 vvcurveto
          35 -8 33 -29 19 vhcurveto
          47 24 17 60 5 47 22 166 rcurveline
          68 8 23 16 64 hhcurveto
          9 62 rlineto
          -56 hlineto
          -101 -48 -73 -97 -13 hvcurveto
          -20 -153 rlineto
          -41 -5 -20 -48 -48 hhcurveto
          -8 -61 rlineto
          endchar
        </CharString>
        <CharString name="braceright">
          -208 -147 62 761 63 hstemhm
          120 111 -84 109 hintmask 11100000
          6 -147 rmoveto
          108 51 62 109 15 hvcurveto
          21 159 rlineto
          40 5 24 44 43 hhcurveto
          8 61 rlineto
          -39 1 -11 31 33 vvcurveto
          12 vlineto
          4 0 4 1 3 vhcurveto
          21 153 rlineto
          hintmask 11010000
          2 14 1 14 13 vvcurveto
          76 -33 53 -87 vhcurveto
          -55 hlineto
          -9 -63 rlineto
          6 hlineto
          51 18 -12 -41 hvcurveto
          -15 vlineto
          -5 -1 -5 -1 -5 vhcurveto
          -22 -166 rlineto
          hintmask 11100000
          -2 -14 -1 -15 -15 vvcurveto
          -36 8 -32 29 -19 vhcurveto
          -48 -25 -16 -57 -5 -48 -22 -166 rcurveline
          -74 -11 -11 -11 -73 hhcurveto
          -8 -62 rlineto
          endchar
        </CharString>
        <CharString name="bracketleft">
          70 callsubr
          212 -132 rmoveto
          8 59 rlineto
          -94 hlineto
          100 746 rlineto
          94 hlineto
          8 59 rlineto
          -207 hlineto
          -116 -864 rlineto
          endchar
        </CharString>
        <CharString name="bracketright">
          70 callsubr
          171 -132 rmoveto
          115 864 rlineto
          -207 hlineto
          -7 -59 rlineto
          93 hlineto
          -99 -746 rlineto
          -94 hlineto
          -8 -59 rlineto
          endchar
        </CharString>
        <CharString name="breve">
          -255 572 90 -90 160 hstemhm
          hintmask 01000000
          -3 702 rmoveto
          -77 43 -53 87 104 45 68 92 24 vhcurveto
          -69 hlineto
          hintmask 10000000
          -44 -16 -27 -26 -49 hhcurveto
          hintmask 01000000
          -47 -22 23 47 -4 hvcurveto
          -67 hlineto
          -1 -4 0 -4 -3 vvcurveto
          -1 -3 0 -4 -3 vvcurveto
          -9 vlineto
          endchar
        </CharString>
        <CharString name="brokenbar">
          43 callsubr
          353 -98 -353 vlineto
          98 508 rmoveto
          353 -98 -353 vlineto
          endchar
        </CharString>
        <CharString name="bullet">
          -86 222 -21 312 -20 hstem
          62 357 rmoveto
          -88 70 -68 87 87 68 68 88 88 -68 68 -88 -85 -71 -71 -85 vhcurveto
          endchar
        </CharString>
        <CharString name="c">
          -79 -12 88 351 83 hstem
          16 126 vstem
          16 197 rmoveto
          -117 77 -92 123 68 47 18 29 55 vhcurveto
          -37 86 rlineto
          -23 -29 -40 -22 -41 hhcurveto
          -75 -22 66 67 77 34 141 101 39 27 11 callsubr
        </CharString>
        <CharString name="caron">
          -236 609 -21 145 -20 hstem
          81 588 -56 callsubr
        </CharString>
        <CharString name="ccedilla">
          -79 -199 -21 647 83 hstem
          16 127 42 98 vstem
          16 197 rmoveto
          -103 61 -87 101 -16 vhcurveto
          -50 -73 -10 callsubr
          49 7 40 15 43 23 rlinecurve
          -36 86 rlineto
          -23 -31 -39 -22 -41 hhcurveto
          -73 -23 66 67 77 33 141 102 37 28 11 callsubr
        </CharString>
        <CharString name="cedilla">
          -282 -199 -21 233 -20 hstem
          111 98 vstem
          51 -220 rmoveto
          17 callsubr
          36 55 rlineto
          -76 hlineto
          -65 -95 8 callsubr
          endchar
        </CharString>
        <CharString name="cent">
          -46 -128 200 -84 84 353 197 hstemhm
          26 127 hintmask 10110000
          26 196 rmoveto
          -97 41 -80 99 -24 vhcurveto
          -47 -123 rlineto
          69 hlineto
          hintmask 01110000
          26 116 rlineto
          14 hlineto
          64 52 19 28 52 hvcurveto
          -36 86 rlineto
          -24 -31 -32 -25 -43 hhcurveto
          -77 -24 70 67 77 39 139 96 37 26 -14 -25 28 hvcurveto
          67 76 -31 25 -41 16 -39 5 rlinecurve
          41 114 rlineto
          -70 hlineto
          -24 -113 rlineto
          -164 -16 -92 -140 -157 vvcurveto
          endchar
        </CharString>
        <CharString name="circumflex">
          -257 609 -21 145 -20 hstem
          58 588 -81 callsubr
        </CharString>
        <CharString name="colon">
          -254 -12 155 133 155 hstemhm
          15 155 -110 155 hintmask 11100000
          15 65 rmoveto
          -43 34 -34 44 43 14 callsubr
          hintmask 11010000
          45 289 16 callsubr
          -44 -43 -34 -34 -43 vhcurveto
          endchar
        </CharString>
        <CharString name="comma">
          -6 callsubr
          -30 34 -47 24 callsubr
        </CharString>
        <CharString name="copyright">
          113 -27 40 67 63 214 64 66 40 hstem
          27 40 81 94 299 40 vstem
          27 250 rmoveto
          -152 125 -125 152 152 125 125 152 152 -125 125 -152 -152 -125 -125 -152 vhcurveto
          40 hmoveto
          131 106 106 131 131 106 -106 -131 -131 -106 -106 -131 -131 -106 106 131 vhcurveto
          81 -34 rmoveto
          -87 51 -49 85 48 30 12 20 43 vhcurveto
          -29 64 rlineto
          -17 -19 -25 -16 -27 hhcurveto
          -48 -15 41 41 48 24 84 60 25 17 -11 -16 19 hvcurveto
          51 56 rlineto
          21 -27 -37 14 -33 hhcurveto
          -117 -76 -92 -113 hvcurveto
          endchar
        </CharString>
        <CharString name="currency">
          69 121 84 -80 -21 355 84 19 -20 hstemhm
          95 95 207 95 hintmask 01101100
          133 104 rmoveto
          51 51 rlineto
          hintmask 10101100
          -23 32 36 -11 41 hhcurveto
          41 36 11 23 32 hvcurveto
          hintmask 01011100
          52 -51 69 69 -57 56 rlineto
          16 31 10 33 39 vvcurveto
          37 -10 36 -16 31 vhcurveto
          57 57 -69 69 -53 -53 rlineto
          hintmask 10101100
          23 -32 -36 11 -40 hhcurveto
          -40 -36 -11 -23 -32 hvcurveto
          hintmask 01011100
          -52 53 -69 -69 56 -57 rlineto
          -17 -32 -8 -35 -37 vvcurveto
          -37 8 -35 17 -32 vhcurveto
          -56 -55 rlineto
          126 159 rmoveto
          hintmask 10101100
          73 41 54 63 64 39 -57 -68 -91 -53 -38 -51 -46 -57 40 87 vhcurveto
          endchar
        </CharString>
        <CharString name="d">
          50 -12 83 -59 -21 436 82 260 -20 hstemhm
          16 122 hintmask 10111000
          -61 callsubr
          49 59 19 52 39 vhcurveto
          hintmask 01111000
          -39 11 34 -29 40 hhcurveto
          35 42 12 19 29 hvcurveto
          -17 64 rlineto
          -5 -13 -22 -7 -13 hhcurveto
          -20 -5 -31 callsubr
          92 638 27 callsubr
          -55 -31 -237 rlineto
          23 -24 -44 9 -33 hhcurveto
          -168 -91 -160 -152 hvcurveto
          122 3 rmoveto
          71 33 156 107 31 27 -12 -28 28 vhcurveto
          hintmask 10111000
          55 callsubr
          -31 -176 -103 74 callsubr
        </CharString>
        <CharString name="dagger">
          -46 -117 -21 878 -20 hstem
          108 430 rmoveto
          114 22 -43 -143 -25 -447 rlineto
          44 hlineto
          92 447 -5 143 110 -22 67 51 -53 58 -116 -25 45 144 -49 82 -65 -82 6 -144 -107 25 -70 -54 rlineto
          endchar
        </CharString>
        <CharString name="daggerdbl">
          -40 -118 -21 879 -20 hstem
          59 58 rmoveto
          114 25 -45 -144 50 -78 64 78 rlineto
          144 vlineto
          100 -25 71 54 -56 53 -110 -20 44 164 -6 143 110 -22 67 51 -52 58 -117 -25 45 144 -48 82 -66 -82 7 -144 -108 25 -69 -54 54 -55 114 22 -43 -143 rlineto
          -164 vlineto
          -106 20 -69 -48 rlineto
          endchar
        </CharString>
        <CharString name="degree">
          -160 448 64 162 64 hstem
          69 67 157 67 vstem
          69 593 rmoveto
          -80 65 -65 80 81 65 65 80 80 -66 65 -80 -80 -65 -65 -80 vhcurveto
          67 hmoveto
          44 34 37 44 44 35 -37 -44 -44 -34 -37 -45 -45 -33 37 44 vhcurveto
          endchar
        </CharString>
        <CharString name="dieresis">
          -235 566 73 callsubr
          2 6 callsubr
          2 623 -106 callsubr
        </CharString>
        <CharString name="divide">
          60 -12 155 61 88 62 155 hstem
          200 155 vstem
          526 204 66 callsubr
          172 -138 29 callsubr
          365 vmoveto
          34 callsubr
          endchar
        </CharString>
        <CharString name="dollar">
          -103 -125 196 -84 84 358 81 -81 195 hstemhm
          44 128 54 128 hintmask 10101100
          -8 29 rmoveto
          35 -23 47 -14 43 -4 -45 -113 rcurveline
          69 hlineto
          hintmask 01011100
          25 112 rlineto
          120 8 68 83 102 140 -182 -31 80 vvcurveto
          43 41 17 32 32 34 -13 -21 24 vhcurveto
          50 84 -28 16 -40 9 -32 4 rlinecurve
          44 116 rlineto
          -68 hlineto
          hintmask 10101100
          -24 -114 rlineto
          -92 -5 -101 -58 -115 -135 182 32 -85 vvcurveto
          -51 -40 -22 -40 -39 -32 20 20 -31 vhcurveto
          -52 -82 rlineto
          endchar
        </CharString>
        <CharString name="dotaccent">
          -226 564 122 hstem
          83 122 vstem
          83 625 rmoveto
          -35 26 -26 35 35 26 26 35 35 -26 26 -35 -35 -26 -26 -35 vhcurveto
          endchar
        </CharString>
        <CharString name="dotlessi">
          12 callsubr
          hstem
          -16 callsubr
          endchar
        </CharString>
        <CharString name="e">
          -7 callsubr
          -98 callsubr
          134 78 -47 callsubr
        </CharString>
        <CharString name="eacute">
          -7 callsubr
          247 -58 callsubr
          134 78 -72 callsubr
          188 313 -90 callsubr
        </CharString>
        <CharString name="ecircumflex">
          -7 callsubr
          227 -58 callsubr
          200 391 -93 callsubr
          10 -313 -47 callsubr
        </CharString>
        <CharString name="edieresis">
          -7 callsubr
          66 114 hstemhm
          15 127 5 -24 callsubr
          -99 123 hintmask 11111101
          -102 callsubr
          132 432 -97 callsubr
          2 -354 -72 callsubr
          hintmask 11111110
          158 354 rmoveto
          -99 callsubr
        </CharString>
        <CharString name="egrave">
          -7 callsubr
          247 -58 callsubr
          211 391 -67 callsubr
          74 -478 -47 callsubr
        </CharString>
        <CharString name="eight">
          -19 -12 81 584 79 hstemhm
          19 107 -34 130 87 128 -78 107 hintmask 11101000
          19 146 rmoveto
          -104 86 -54 97 141 94 90 124 76 -40 44 -48 53 vhcurveto
          -6 6 -6 7 rlineto
          hintmask 11010100
          66 58 63 38 109 vvcurveto
          92 -76 47 -90 -104 -104 -75 -125 -68 30 -35 45 -48 vhcurveto
          3 -3 4 -4 rlineto
          hintmask 11101000
          -77 -61 -78 -50 -117 vvcurveto
          107 8 rmoveto
          57 31 35 38 30 vhcurveto
          38 30 rlineto
          29 -31 47 -44 -50 vvcurveto
          -58 -45 -54 -58 -51 -29 36 49 vhcurveto
          hintmask 11010100
          96 400 rmoveto
          48 31 51 48 43 15 -33 -37 -62 -42 -33 -40 -32 vhcurveto
          -25 28 -30 27 43 vvcurveto
          endchar
        </CharString>
        <CharString name="ellipsis">
          214 -12 155 hstem
          5 155 93 154 93 155 cntrmask 01110000
          23 callsubr
          248 hmoveto
          34 callsubr
          247 hmoveto
          -43 34 -34 44 43 34 34 43 44 -34 34 -43 -43 -35 -35 -43 vhcurveto
          endchar
        </CharString>
        <CharString name="emdash">
          425 211 94 hstem
          867 211 rmoveto
          14 94 rlineto
          -826 hlineto
          -14 -94 rlineto
          endchar
        </CharString>
        <CharString name="endash">
          75 211 94 hstem
          517 211 rmoveto
          14 94 rlineto
          -476 hlineto
          -14 -94 rlineto
          endchar
        </CharString>
        <CharString name="equal">
          137 109 88 105 88 hstem
          565 109 66 callsubr
          498 193 66 callsubr
          endchar
        </CharString>
        <CharString name="eth">
          5 -11 83 356 82 273 -20 hstem
          16 126 215 126 vstem
          16 206 rmoveto
          -124 70 -93 129 165 103 148 170 137 -62 129 -64 99 vhcurveto
          94 51 -30 60 -102 -55 -17 20 -14 19 -15 16 rlinecurve
          -91 -52 42 -54 -94 -51 35 -58 95 51 21 -35 17 -37 16 -39 rlinecurve
          1 -9 -10 1 -11 hhcurveto
          -155 -113 -144 -160 hvcurveto
          126 -8 rmoveto
          49 19 181 112 68 16 -61 -61 -59 -15 -175 -116 -68 -16 65 61 vhcurveto
          endchar
        </CharString>
        <CharString name="exclam">
          -263 -12 148 586 -20 hstem
          13 149 vstem
          13 62 rmoveto
          -41 34 -33 40 41 34 33 41 41 -34 33 -41 -40 -34 -34 -40 vhcurveto
          142 147 rmoveto
          94 458 rlineto
          1 3 0 4 6 vvcurveto
          20 -15 9 -19 3 vhcurveto
          4 -27 -26 6 -27 hhcurveto
          -24 -6 -11 -23 -3 hvcurveto
          -36 -466 rlineto
          endchar
        </CharString>
        <CharString name="exclamdown">
          -262 -109 -21 587 148 hstem
          83 149 vstem
          -6 -87 rmoveto
          -20 16 -9 19 -3 vhcurveto
          -4 27 27 -7 25 hhcurveto
          25 6 11 23 3 hvcurveto
          36 467 -88 12 -94 -457 rlineto
          -1 -5 -1 -5 -3 vvcurveto
          89 618 rmoveto
          -41 34 -33 41 40 34 33 41 40 -34 34 -40 -41 -34 -33 -41 vhcurveto
          endchar
        </CharString>
        <CharString name="f">
          -176 -230 79 565 -34 callsubr
          43 24 -12 -28 31 hvcurveto
          49 79 rlineto
          27 -39 -58 16 -47 hhcurveto
          -175 -57 callsubr
        </CharString>
        <CharString name="five">
          -130 -186 -21 584 121 hstem
          185 126 vstem
          -6 -207 rmoveto
          144 19 173 98 172 vvcurveto
          112 -80 83 -87 50 vhcurveto
          21 50 rlineto
          178 hlineto
          33 121 rlineto
          -263 hlineto
          -97 -225 rlineto
          70 -32 99 -75 -89 vvcurveto
          -126 -112 -64 -100 -32 vhcurveto
          endchar
        </CharString>
        <CharString name="florin">
          -160 -230 79 565 83 197 82 hstem
          -235 -186 rmoveto
          -33 24 68 -11 39 hhcurveto
          116 63 75 108 29 hvcurveto
          127 461 rlineto
          118 hlineto
          22 83 rlineto
          -118 hlineto
          69 19 51 128 90 hhcurveto
          43 23 -12 -28 27 hvcurveto
          60 79 rlineto
          27 -35 -56 16 -47 hhcurveto
          -176 -71 -126 -153 -43 hvcurveto
          -79 hlineto
          -21 -83 rlineto
          79 hlineto
          -124 -449 rlineto
          -51 -13 -28 -65 -61 hhcurveto
          -23 -30 16 15 -15 hvcurveto
          -58 -66 rlineto
          endchar
        </CharString>
        <CharString name="four">
          13 -163 -21 183 100 399 -20 hstem
          245 -1 rmoveto
          -24 -183 rlineto
          119 hlineto
          24 183 rlineto
          95 hlineto
          17 100 rlineto
          -99 hlineto
          52 399 rlineto
          -124 hlineto
          -330 -441 rlineto
          -58 vlineto
          313 330 rmoveto
          -30 -230 rlineto
          -141 hlineto
          endchar
        </CharString>
        <CharString name="fraction">
          -135 -6 -21 780 -20 hstem
          35 -27 9 callsubr
          endchar
        </CharString>
        <CharString name="g">
          8 -230 80 138 83 355 84 11 -20 hstemhm
          16 122 hintmask 11011000
          -11 -174 rmoveto
          -16 18 61 -40 97 hhcurveto
          160 84 126 170 24 hvcurveto
          61 455 -98 -31 rlineto
          hintmask 11101000
          11 -25 -44 9 -33 hhcurveto
          -184 -94 -161 -152 -108 51 -101 120 43 44 13 37 39 hvcurveto
          4 hlineto
          -42 -5 -53 -146 -100 hhcurveto
          -53 -55 48 9 -6 hvcurveto
          93 293 rmoveto
          71 37 155 112 31 23 -10 -12 25 vhcurveto
          55 callsubr
          -28 -193 -108 74 callsubr
        </CharString>
        <CharString name="germandbls">
          73 -230 90 128 90 328 91 150 97 hstem
          250 134 26 135 vstem
          -169 -185 rmoveto
          9 -9 11 -7 13 -7 rrcurveto
          -11 23 32 -11 43 hhcurveto
          113 67 71 117 16 hvcurveto
          68 506 rlineto
          71 10 25 112 91 hhcurveto
          33 25 -28 -32 hvcurveto
          -113 -160 4 -102 -88 165 15 -106 vvcurveto
          -58 -41 -61 -64 -25 -24 8 9 -23 vhcurveto
          -48 -77 rlineto
          -19 37 40 -11 43 hhcurveto
          133 102 99 134 hvcurveto
          143 -161 -1 42 43 154 -5 159 vvcurveto
          101 -83 41 -91 -139 -93 -96 -146 -19 vhcurveto
          -1 -5 rlineto
          -72 hlineto
          -12 -91 rlineto
          72 hlineto
          -61 -450 rlineto
          -76 -11 -23 -20 -51 hhcurveto
          -20 -18 8 11 -15 hvcurveto
          -8 6 -8 7 -7 7 -47 -84 rcurveline
          endchar
        </CharString>
        <CharString name="grave">
          -263 611 -21 165 -20 hstem
          155 590 -67 callsubr
          endchar
        </CharString>
        <CharString name="greater">
          81 9 -21 521 -20 hstem
          554 223 rmoveto
          52 vlineto
          -498 234 rlineto
          -90 vlineto
          368 -170 -368 -173 rlineto
          -88 vlineto
          endchar
        </CharString>
        <CharString name="greaterequal">
          113 1 85 425 -20 hstem
          553 1 rmoveto
          85 -497 -85 vlineto
          499 282 rmoveto
          52 vlineto
          -499 176 rlineto
          -90 vlineto
          258 -91 35 -12 36 -6 36 -3 rlinecurve
          -35 -1 -35 -7 -35 -11 -260 -92 rcurveline
          -92 vlineto
          endchar
        </CharString>
        <CharString name="guillemotleft">
          -46 -2 callsubr
          300 -170 rmoveto
          79 11 -101 159 143 158 -77 14 -176 -172 rlineto
          endchar
        </CharString>
        <CharString name="guillemotright">
          -48 36 callsubr
          88 162 44 callsubr
          -80 69 callsubr
          243 -11 44 callsubr
          -79 -14 97 -158 -144 -159 rlineto
          endchar
        </CharString>
        <CharString name="guilsinglleft">
          -216 -2 callsubr
          endchar
        </CharString>
        <CharString name="guilsinglright">
          -217 36 callsubr
          87 162 44 callsubr
          -79 69 callsubr
          endchar
        </CharString>
        <CharString name="h">
          -14 76 callsubr
          258 -20 hstem
          335 117 vstem
          127 hmoveto
          48 361 rlineto
          21 21 58 32 31 hhcurveto
          37 13 -19 -35 -12 -1 -12 -2 -12 hvcurveto
          -44 -324 rlineto
          126 -13 callsubr
          -51 -54 -30 -31 -40 vhcurveto
          44 319 53 callsubr
          4 58 callsubr
        </CharString>
        <CharString name="hungarumlaut">
          -106 590 142 hstem
          93 590 rmoveto
          51 callsubr
          250 hmoveto
          51 callsubr
          endchar
        </CharString>
        <CharString name="hyphen">
          -179 210 95 hstem
          263 210 rmoveto
          13 95 rlineto
          -221 hlineto
          -13 -95 rlineto
          endchar
        </CharString>
        <CharString name="i">
          12 callsubr
          124 153 hstem
          89 146 vstem
          -16 callsubr
          75 667 rmoveto
          -36 26 -30 37 45 38 44 44 36 -25 29 -37 -46 -38 -43 -44 vhcurveto
          endchar
        </CharString>
        <CharString name="iacute">
          12 callsubr
          280 -20 hstem
          -16 callsubr
          163 592 -90 callsubr
        </CharString>
        <CharString name="icircumflex">
          12 callsubr
          260 -20 hstem
          70 592 -93 callsubr
          144 -592 rmoveto
          -28 callsubr
          endchar
        </CharString>
        <CharString name="idieresis">
          12 callsubr
          89 73 callsubr
          8 6 callsubr
          8 623 -97 callsubr
          129 -623 rmoveto
          -2 39 callsubr
          -125 hlineto
          4 -54 -60 -443 rlineto
          155 623 rmoveto
          -99 callsubr
        </CharString>
        <CharString name="igrave">
          12 callsubr
          280 -20 hstem
          107 592 -67 callsubr
          182 -757 rmoveto
          -3 55 60 442 rlineto
          -125 hlineto
          3 -54 -59 -443 rlineto
          endchar
        </CharString>
        <CharString name="infinity">
          257 74 110 130 110 hstem
          40 99 474 99 vstem
          40 249 rmoveto
          -101 61 -74 104 73 53 57 50 45 vhcurveto
          -51 43 57 -56 71 hhcurveto
          104 61 74 101 101 -61 74 -104 -71 -57 -56 -51 -43 hvcurveto
          50 -45 -53 57 -73 hhcurveto
          -104 -61 -74 -101 hvcurveto
          99 hmoveto
          40 24 25 41 47 36 -34 -31 29 vhcurveto
          -31 -29 -36 -34 -47 hhcurveto
          -41 -24 25 40 hvcurveto
          297 hmoveto
          31 29 36 34 47 hhcurveto
          41 24 -25 -40 -40 -24 -25 -41 -47 -36 34 31 -29 hvcurveto
          endchar
        </CharString>
        <CharString name="integral">
          -230 -227 80 809 80 hstemhm
          -25 222 -122 205 hintmask 11100000
          -25 -227 rmoveto
          159 63 70 147 hvcurveto
          559 vlineto
          hintmask 11010000
          56 15 57 68 vhcurveto
          80 vlineto
          -160 -45 -76 -141 hvcurveto
          -559 vlineto
          hintmask 11100000
          -59 -32 -54 -68 vhcurveto
          endchar
        </CharString>
        <CharString name="j">
          -288 64 callsubr
          124 153 hstem
          87 147 vstem
          -219 -188 rmoveto
          -25 41 60 -17 47 hhcurveto
          164 20 134 130 19 hvcurveto
          63 463 53 callsubr
          4 -53 -58 -429 rlineto
          -50 -8 -13 -115 -71 hhcurveto
          -31 -37 15 27 -19 hvcurveto
          251 775 rmoveto
          -35 27 -31 37 45 38 43 45 36 -26 29 -37 -44 -40 -43 -44 vhcurveto
          endchar
        </CharString>
        <CharString name="k">
          -59 12 callsubr
          292 -20 hstem
          129 hmoveto
          34 255 120 -255 rlineto
          132 hlineto
          -134 267 179 230 rlineto
          -128 hlineto
          -167 -228 67 500 rlineto
          -129 hlineto
          5 58 callsubr
        </CharString>
        <CharString name="l">
          -285 21 -21 769 -20 hstem
          140 hmoveto
          -3 54 96 715 rlineto
          -128 hlineto
          3 58 callsubr
        </CharString>
        <CharString name="less">
          81 9 -21 521 -20 hstem
          520 -12 rmoveto
          88 vlineto
          -368 173 368 170 rlineto
          90 vlineto
          -498 -234 rlineto
          -52 vlineto
          endchar
        </CharString>
        <CharString name="lessequal">
          94 1 85 425 -20 hstem
          534 106 rmoveto
          92 vlineto
          -260 92 -32 11 -37 7 -35 1 rlinecurve
          35 3 38 6 33 12 258 91 rcurveline
          90 vlineto
          -498 -176 rlineto
          -52 vlineto
          499 -282 rmoveto
          85 -498 -85 vlineto
          endchar
        </CharString>
        <CharString name="logicalnot">
          114 100 -21 188 83 hstem
          464 86 vstem
          464 267 rmoveto
          -188 86 271 -498 -83 vlineto
          endchar
        </CharString>
        <CharString name="lozenge">
          0 7 -21 753 -20 hstem
          243 -14 rmoveto
          42 hlineto
          206 376 -206 377 rlineto
          -42 hlineto
          -206 -377 rlineto
          225 262 rmoveto
          4 hlineto
          136 -262 -136 -261 rlineto
          -4 hlineto
          -137 261 rlineto
          endchar
        </CharString>
        <CharString name="lslash">
          -255 21 -21 768 -20 hstem
          67 274 rmoveto
          -36 -274 rlineto
          116 hlineto
          43 330 65 30 13 98 -65 -30 45 340 53 callsubr
          3 -53 -45 -344 -61 -28 -12 -97 rlineto
          endchar
        </CharString>
        <CharString name="m">
          255 21 -21 414 96 hstem
          605 117 vstem
          130 hmoveto
          49 361 rlineto
          24 24 44 29 35 hhcurveto
          37 14 -20 -35 -8 -1 -8 -1 -8 hvcurveto
          -45 -335 rlineto
          115 hlineto
          48 362 rlineto
          22 25 44 30 34 hhcurveto
          39 14 -17 -37 -9 -1 -10 -1 -9 hvcurveto
          -44 -332 rlineto
          124 hlineto
          -3 53 38 286 rlineto
          3 16 1 17 17 vvcurveto
          77 -33 44 -81 -64 -55 -30 -43 -45 vhcurveto
          52 -15 -42 21 -51 hhcurveto
          -63 -44 -27 -39 -47 hvcurveto
          -44 callsubr
          endchar
        </CharString>
        <CharString name="middot">
          -278 182 151 hstem
          34 151 vstem
          34 257 rmoveto
          -41 33 -34 43 41 34 33 43 41 -33 34 -43 -41 -34 -33 -43 vhcurveto
          endchar
        </CharString>
        <CharString name="minus">
          118 205 88 hstem
          554 205 rmoveto
          88 -496 -88 vlineto
          endchar
        </CharString>
        <CharString name="multiply">
          0 63 -21 413 -20 hstem
          103 42 rmoveto
          145 144 145 -144 62 62 -145 144 145 145 -62 62 -145 -144 -145 144 -62 -62 145 -145 -145 -144 rlineto
          endchar
        </CharString>
        <CharString name="n">
          -10 76 callsubr
          hstem
          339 117 vstem
          33 callsubr
          -12 -1 -12 -2 -50 callsubr
          endchar
        </CharString>
        <CharString name="nine">
          8 -193 -21 292 86 264 83 hstem
          22 130 207 128 vstem
          -6 -214 rmoveto
          240 68 253 187 256 vvcurveto
          127 -78 87 -129 -131 -127 -110 -149 -105 70 -69 107 44 31 12 25 40 vhcurveto
          -73 -123 -137 -99 -127 -42 rrcurveto
          175 415 rmoveto
          69 38 93 80 67 22 -65 -62 -31 -4 -26 -7 -27 vhcurveto
          -31 -32 -39 -22 -41 hhcurveto
          -59 -25 46 56 hvcurveto
          endchar
        </CharString>
        <CharString name="notequal">
          86 0 197 -88 88 105 88 -88 195 hstemhm
          hintmask 01100000
          173 109 rmoveto
          hintmask 10100000
          -51 -109 rlineto
          95 hlineto
          hintmask 01100000
          51 109 rlineto
          271 88 -229 hlineto
          49 105 rlineto
          180 88 -138 hlineto
          hintmask 10010000
          50 107 rlineto
          -98 hlineto
          hintmask 10100000
          -50 -107 rlineto
          -262 -88 221 hlineto
          -48 -105 rlineto
          -173 hlineto
          hintmask 01100000
          -88 vlineto
          endchar
        </CharString>
        <CharString name="ntilde">
          -10 76 callsubr
          67 7 callsubr
          339 117 hintmask 11010100
          33 callsubr
          -9 0 -15 -3 -50 callsubr
          139 582 rmoveto
          13 15 20 12 17 hhcurveto
          hintmask 11100100
          -84 callsubr
          hintmask 11001100
          -71 callsubr
          endchar
        </CharString>
        <CharString name="numbersign">
          67 21 -21 208 89 128 89 218 -20 hstem
          142 208 rmoveto
          62 callsubr
          94 hlineto
          62 callsubr
          118 89 -106 hlineto
          18 128 rlineto
          114 89 -102 57 callsubr
          -94 57 callsubr
          -122 -89 110 hlineto
          -18 -128 rlineto
          -118 -89 hlineto
          225 217 rmoveto
          94 hlineto
          -18 -128 rlineto
          -94 hlineto
          endchar
        </CharString>
        <CharString name="o">
          20 callsubr
          -79 callsubr
          endchar
        </CharString>
        <CharString name="oacute">
          20 callsubr
          246 -20 -79 callsubr
          191 394 -90 callsubr
        </CharString>
        <CharString name="ocircumflex">
          20 callsubr
          226 -20 -79 callsubr
          89 394 -81 callsubr
        </CharString>
        <CharString name="odieresis">
          20 callsubr
          66 114 hstemhm
          16 125 24 -24 callsubr
          -83 125 hintmask 11111010
          -89 callsubr
          24 436 -97 callsubr
          hintmask 11111100
          -94 callsubr
        </CharString>
        <CharString name="oe">
          300 28 callsubr
          149 82 hstem
          16 125 216 122 180 123 vstem
          -43 callsubr
          75 60 30 47 45 vhcurveto
          -51 39 63 -26 72 -19 callsubr
          78 -68 38 -85 -77 -61 -32 -47 -47 vhcurveto
          49 -33 -54 30 -73 hhcurveto
          -20 callsubr
          hvcurveto
          125 -6 -76 callsubr
          344 82 -47 callsubr
        </CharString>
        <CharString name="ogonek">
          -217 -211 71 173 -20 hstem
          23 101 vstem
          23 -134 rmoveto
          -55 43 -22 49 56 51 26 31 43 vhcurveto
          -16 50 rlineto
          -15 -23 -38 -21 -27 hhcurveto
          -20 -17 8 23 58 106 41 42 24 hvcurveto
          -32 19 rlineto
          -76 -13 -141 -62 -92 vvcurveto
          endchar
        </CharString>
        <CharString name="ograve">
          20 callsubr
          247 61 callsubr
          -86 callsubr
          220 389 -67 callsubr
          56 -560 13 callsubr
        </CharString>
        <CharString name="one">
          -121 0 99 399 -20 hstem
          326 hmoveto
          13 99 rlineto
          -99 hlineto
          52 399 rlineto
          -74 hlineto
          -175 -85 12 -64 106 29 -36 -279 rlineto
          -103 hlineto
          -13 -99 rlineto
          endchar
        </CharString>
        <CharString name="onehalf">
          521 -6 -21 27 106 140 79 84 88 235 -20 41 -20 hstem
          878 122 vstem
          379 -53 callsubr
          640 27 rmoveto
          40 106 rlineto
          -182 hlineto
          86 59 123 110 109 vvcurveto
          80 -63 33 -76 -71 -62 -28 -43 -59 vhcurveto
          33 -69 rlineto
          23 31 55 29 37 hhcurveto
          31 22 -17 -31 -82 -178 -155 -80 -64 hvcurveto
          -10 -8 rlineto
          -52 vlineto
          endchar
        </CharString>
        <CharString name="onequarter">
          484 -6 -21 27 180 -79 79 66 79 407 -20 41 -20 hstemhm
          hintmask 10111100
          382 -53 callsubr
          465 128 rmoveto
          hintmask 11011100
          -13 -101 rlineto
          108 hlineto
          hintmask 10111100
          13 101 rlineto
          67 hlineto
          11 79 rlineto
          -68 22 callsubr
          44 11 20 16 39 -3 -11 rcurveline
          -6 -26 -6 -30 -4 -22 -16 -117 rlineto
          -105 hlineto
          endchar
        </CharString>
        <CharString name="ordfeminine">
          -98 252 58 58 56 236 55 hstem
          63 81 vstem
          63 507 rmoveto
          -72 34 -67 80 32 37 13 35 27 vhcurveto
          4 hlineto
          -27 5 22 -19 27 hhcurveto
          23 28 9 12 20 hvcurveto
          -12 42 rlineto
          -3 -8 -15 -5 -9 hhcurveto
          -13 -3 13 11 6 0 5 1 3 hvcurveto
          36 246 rlineto
          -42 hlineto
          -15 -27 rlineto
          24 -24 -33 9 -23 hhcurveto
          -115 -64 -108 -100 hvcurveto
          261 -255 63 callsubr
          47 255 rmoveto
          48 21 105 72 20 19 -9 -17 18 vhcurveto
          -93 -13 -21 -117 -68 hhcurveto
          -39 -9 40 43 hvcurveto
          endchar
        </CharString>
        <CharString name="ordmasculine">
          -123 252 58 56 55 239 55 hstem
          68 84 148 85 vstem
          68 508 rmoveto
          -85 47 -57 87 115 68 99 108 84 -47 58 -88 -114 -68 -101 -106 vhcurveto
          232 -256 63 callsubr
          79 253 rmoveto
          54 19 101 71 47 11 -44 -40 -55 -19 -100 -70 -48 -11 44 40 vhcurveto
          endchar
        </CharString>
        <CharString name="oslash">
          3 -52 -21 61 80 360 82 46 61 callsubr
          51 -73 rmoveto
          65 84 rlineto
          -15 27 33 -8 38 hhcurveto
          165 103 153 154 54 -13 46 -27 38 hvcurveto
          61 79 -67 44 -53 -69 rlineto
          15 -29 -33 8 -37 hhcurveto
          -20 callsubr
          -55 13 -46 27 -38 hvcurveto
          -72 -93 rlineto
          157 226 rmoveto
          78 31 153 101 23 15 -7 -11 12 vhcurveto
          -182 -235 rlineto
          216 148 rmoveto
          -18 vlineto
          -81 -25 -156 -107 -23 -15 7 12 -13 vhcurveto
          endchar
        </CharString>
        <CharString name="otilde">
          20 callsubr
          68 7 callsubr
          0 callsubr
          hintmask 11010110
          -86 callsubr
          153 379 rmoveto
          13 15 20 12 17 hhcurveto
          hintmask 11100110
          -84 callsubr
          hintmask 11001110
          -71 callsubr
          22 -412 13 callsubr
        </CharString>
        <CharString name="overscore">
          -235 595 64 hstem
          302 595 rmoveto
          64 -330 -64 vlineto
          endchar
        </CharString>
        <CharString name="p">
          15 -204 -21 214 82 355 84 hstem
          371 122 vstem
          113 -225 rmoveto
          -5 55 25 191 rlineto
          -23 24 45 -9 32 hhcurveto
          168 91 160 152 108 -51 101 -120 -49 -60 -24 -39 -31 hvcurveto
          -1 21 -4 20 -5 19 -117 -15 rcurveline
          11 -23 2 -31 -25 vvcurveto
          -19 -1 -19 -3 -19 vhcurveto
          -78 -581 rlineto
          159 336 rmoveto
          140 19 24 175 110 hhcurveto
          59 14 -57 -72 -71 -33 -155 -107 -31 -27 12 28 -28 hvcurveto
          endchar
        </CharString>
        <CharString name="paragraph">
          -27 -231 54 114 54 719 54 hstem
          -5 54 vstem
          -5 -136 rmoveto
          -56 41 -39 55 43 40 24 35 24 vhcurveto
          -1 7 5 -1 7 hhcurveto
          60 56 52 59 8 hvcurveto
          108 773 rlineto
          56 hlineto
          8 54 rlineto
          -192 hlineto
          -136 -117 -78 -148 -96 71 -64 93 hvcurveto
          -69 -498 rlineto
          -31 -4 -28 -26 -32 hhcurveto
          -28 -22 21 28 36 31 29 35 hvcurveto
          8 54 rlineto
          -67 -61 -59 -68 hvcurveto
          339 846 rmoveto
          61 hlineto
          -108 -773 rlineto
          -31 -4 -29 -26 -32 hhcurveto
          -4 hlineto
          endchar
        </CharString>
        <CharString name="parenleft">
          72 callsubr
          26 112 vstem
          26 222 rmoveto
          -136 48 -124 79 -108 vhcurveto
          93 16 rlineto
          -69 104 -39 100 125 vvcurveto
          214 79 160 143 154 vhcurveto
          -89 16 rlineto
          -138 -141 -107 -178 -202 vvcurveto
          endchar
        </CharString>
        <CharString name="parenright">
          72 callsubr
          168 112 vstem
          35 -146 rmoveto
          138 138 107 181 202 vvcurveto
          135 -48 125 -79 108 vhcurveto
          -92 -16 rlineto
          68 -104 39 -101 -125 vvcurveto
          -213 -79 -163 -143 -151 vhcurveto
          endchar
        </CharString>
        <CharString name="partialdiff">
          30 -11 99 237 98 213 107 hstem
          17 127 226 142 vstem
          17 167 rmoveto
          -141 111 -37 71 97 216 76 384 180 -71 114 -152 -64 -47 -17 -19 -32 vhcurveto
          -19 -11 -16 -12 -13 -13 37 -75 rcurveline
          9 7 10 7 12 6 rrcurveto
          11 20 27 9 35 hhcurveto
          97 25 -112 -88 hvcurveto
          -1 -19 1 -17 -3 -15 rrcurveto
          8 -10 -28 30 -68 hhcurveto
          -70 -174 -53 -203 hvcurveto
          127 4 rmoveto
          11 1 9 1 5 vhcurveto
          24 3 31 105 92 hhcurveto
          49 21 -17 -15 11 hvcurveto
          -29 -4 -39 -176 -95 hhcurveto
          -61 -10 51 32 hvcurveto
          endchar
        </CharString>
        <CharString name="percent">
          324 71 callsubr
          240 54 -54 68 hstemhm
          57 104 136 103 49 103 136 103 hintmask 0110101111000000
          21 callsubr
          187 49 callsubr
          -340 hlineto
          hintmask 1010011111000000
          -18 callsubr
          288 -306 15 callsubr
          vhcurveto
          hintmask 1001101111000000
          -55 callsubr
          endchar
        </CharString>
        <CharString name="period">
          -281 -12 155 hstem
          5 155 vstem
          23 callsubr
          endchar
        </CharString>
        <CharString name="perthousand">
          617 71 callsubr
          229 65 -65 79 hstemhm
          57 104 136 103 -13 103 136 103 14 103 136 103 hintmask 0110101101110000
          21 callsubr
          155 49 callsubr
          -308 hlineto
          hintmask 1010011101110000
          -18 callsubr
          hintmask 1001101011110000
          226 -306 -37 callsubr
          253 2 -37 callsubr
          endchar
        </CharString>
        <CharString name="pi">
          106 -10 100 -99 -21 437 90 23 -20 hstemhm
          328 111 hintmask 01111000
          77 326 rmoveto
          41 13 36 40 41 hhcurveto
          11 hlineto
          -3 -11 -8 -14 -1 -11 -25 -190 rcurveline
          -9 -64 -41 -57 -55 -35 27 -55 rcurveline
          175 66 25 183 21 161 4 27 rcurveline
          125 hlineto
          -53 -61 -32 -144 -74 vvcurveto
          hintmask 10111000
          -72 28 -66 80 35 45 14 27 28 vhcurveto
          -21 67 rlineto
          -5 -14 -13 -3 -11 hhcurveto
          -35 -11 29 31 77 39 104 31 76 hvcurveto
          47 5 47 7 35 43 -24 58 rcurveline
          -18 -42 -16 -5 -43 hhcurveto
          -312 hlineto
          -93 -71 -54 -99 -21 hvcurveto
          endchar
        </CharString>
        <CharString name="plus">
          55 21 -21 205 88 80 callsubr
          231 88 vstem
          231 204 rmoveto
          -204 88 205 205 88 -205 204 -88 -205 -205 -88 vlineto
          endchar
        </CharString>
        <CharString name="plusminus">
          98 1 85 181 85 145 -20 hstem
          244 88 vstem
          537 1 rmoveto
          85 -498 -85 vlineto
          205 265 rmoveto
          -146 88 147 205 85 -205 145 -88 -146 -205 -85 vlineto
          endchar
        </CharString>
        <CharString name="product">
          356 -208 -21 862 99 hstem
          189 136 284 135 vstem
          189 633 rmoveto
          -862 136 862 284 -862 135 862 102 99 -757 -99 vlineto
          endchar
        </CharString>
        <CharString name="q">
          9 -203 -21 212 83 356 82 28 -20 hstem
          16 121 vstem
          -61 callsubr
          43 47 14 37 39 vhcurveto
          -35 -263 rlineto
          127 hlineto
          -5 55 93 706 rlineto
          -47 hlineto
          -43 -77 rlineto
          37 -37 -51 12 -33 -104 callsubr
          endchar
        </CharString>
        <CharString name="question">
          -107 -12 148 515 81 hstemhm
          35 149 -134 114 128 123 hintmask 11101000
          35 62 rmoveto
          -40 34 -34 40 40 35 33 41 41 -35 33 -40 -40 -34 -34 -40 vhcurveto
          hintmask 11011000
          15 288 rmoveto
          -111 124 -37 91 -5 vhcurveto
          26 93 rlineto
          -15 hlineto
          -29 -83 6 45 hvcurveto
          77 251 5 178 vvcurveto
          90 -88 41 -79 -44 -39 -8 -12 -43 vhcurveto
          25 -84 rlineto
          13 28 31 10 32 hhcurveto
          23 31 -16 -27 hvcurveto
          -112 -242 12 -158 vvcurveto
          endchar
        </CharString>
        <CharString name="questiondown">
          -103 -132 81 361 93 61 148 hstemhm
          -10 123 108 149 -129 114 hintmask 11110100
          -10 -1 rmoveto
          -90 88 -41 79 44 39 8 12 43 vhcurveto
          -25 84 rlineto
          -15 -29 -31 -8 -31 hhcurveto
          -23 -31 16 27 hvcurveto
          112 242 -12 158 vvcurveto
          111 -124 37 -91 5 vhcurveto
          -26 -93 rlineto
          20 hlineto
          33 74 -8 -43 hvcurveto
          -77 -251 -5 -178 vvcurveto
          hintmask 11111000
          231 539 rmoveto
          -41 35 -33 40 40 34 34 40 40 -34 34 -40 -40 -35 -33 -41 vhcurveto
          endchar
        </CharString>
        <CharString name="quotedbl">
          -184 -17 callsubr
          147 hmoveto
          -2 20 -99 -9 vvcurveto
          22 10 callsubr
          endchar
        </CharString>
        <CharString name="quotedblbase">
          -88 -111 60 callsubr
          5 5 callsubr
          34 5 callsubr
          hintmask 11101000
          20 -132 42 callsubr
          hintmask 11011000
          -46 36 -11 4 callsubr
          225 -39 42 callsubr
          hintmask 11100100
          -46 36 -11 4 callsubr
          endchar
        </CharString>
        <CharString name="quotedblleft">
          -96 35 callsubr
          64 120 -120 156 34 120 -120 156 hintmask 11011000
          64 544 rmoveto
          45 callsubr
          hintmask 11010100
          -26 callsubr
          190 hmoveto
          45 callsubr
          hintmask 11100100
          -26 callsubr
          endchar
        </CharString>
        <CharString name="quotedblright">
          -97 35 callsubr
          88 5 callsubr
          34 5 callsubr
          hintmask 11101000
          103 467 -9 callsubr
          hintmask 11011000
          26 callsubr
          225 -39 -9 callsubr
          hintmask 11100100
          26 callsubr
          endchar
        </CharString>
        <CharString name="quoteleft">
          -285 35 callsubr
          65 156 vstemhm
          65 544 rmoveto
          45 callsubr
          hintmask 11100000
          -26 callsubr
          endchar
        </CharString>
        <CharString name="quoteright">
          35 callsubr
          88 5 callsubr
          hintmask 11100000
          103 467 -9 callsubr
          hintmask 11010000
          26 callsubr
          endchar
        </CharString>
        <CharString name="quotesinglbase">
          -6 callsubr
          -32 34 -45 24 callsubr
        </CharString>
        <CharString name="quotesingle">
          -331 -17 callsubr
          endchar
        </CharString>
        <CharString name="r">
          -178 21 -21 388 119 hstem
          131 hmoveto
          40 296 rlineto
          42 32 50 50 63 hhcurveto
          4 hlineto
          35 119 rlineto
          -67 -66 -54 -51 -38 hvcurveto
          1 5 0 4 5 vvcurveto
          15 vlineto
          27 -3 25 -7 24 vhcurveto
          -122 -10 rlineto
          15 -23 1 -34 -27 vvcurveto
          -17 -1 -20 -3 -13 vhcurveto
          -48 -363 rlineto
          endchar
        </CharString>
        <CharString name="radical">
          103 -209 -21 1198 -20 hstem
          12 176 rmoveto
          90 30 140 -436 rlineto
          110 hlineto
          342 1198 rlineto
          -93 hlineto
          -297 -1046 -127 402 -190 -67 rlineto
          endchar
        </CharString>
        <CharString name="registered">
          -14 399 36 62 143 -143 235 53 36 hstemhm
          79 35 213 61 77 35 hintmask 11011110
          79 610 rmoveto
          -116 94 -95 116 116 95 95 116 116 -95 95 -116 -116 -94 -95 -116 vhcurveto
          35 hmoveto
          97 79 78 96 96 80 -79 -96 -97 -80 -78 -96 -96 -79 78 97 vhcurveto
          134 -113 rmoveto
          13 96 rlineto
          11 hlineto
          51 -96 rlineto
          72 hlineto
          -59 107 rlineto
          32 13 20 25 35 vvcurveto
          hintmask 10111110
          44 -35 11 -39 vhcurveto
          -93 hlineto
          -33 -235 rlineto
          86 188 rmoveto
          26 hlineto
          11 16 -2 -15 hvcurveto
          hintmask 11011110
          -23 -21 -5 -19 vhcurveto
          -19 hlineto
          endchar
        </CharString>
        <CharString name="ring">
          -230 531 66 81 67 hstem
          34 66 81 68 vstem
          34 638 -27 callsubr
        </CharString>
        <CharString name="s">
          -122 -12 83 355 84 -60 callsubr
          -52 -82 rlineto
          endchar
        </CharString>
        <CharString name="scaron">
          -122 -12 83 355 84 227 -20 -60 callsubr
          141 478 -56 callsubr
        </CharString>
        <CharString name="section">
          -54 -230 79 845 81 hstemhm
          80 105 -105 243 -204 106 32 107 hintmask 11100100
          -41 -209 rmoveto
          -16 32 27 -5 36 hhcurveto
          82 71 40 87 16 hvcurveto
          92 12 49 58 93 vvcurveto
          120 -15 118 -12 120 vhcurveto
          hintmask 11010000
          -7 52 -7 55 53 vvcurveto
          46 6 70 61 27 33 -13 -5 11 vhcurveto
          29 78 rlineto
          11 -31 -30 10 -35 hhcurveto
          hintmask 11001100
          -91 -59 -38 -88 -19 hvcurveto
          hintmask 11100100
          -115 -11 -30 -85 -104 vvcurveto
          -51 6 -52 5 -51 vhcurveto
          hintmask 11001100
          12 -116 16 -116 -117 vvcurveto
          -43 -10 -54 -52 -19 -28 10 7 -19 vhcurveto
          hintmask 11100100
          194 587 rmoveto
          34 3 51 30 21 vhcurveto
          1 -41 3 -40 4 -41 14 -122 rcurveline
          8 -81 9 -82 -81 vvcurveto
          hintmask 11001100
          -29 -4 -41 -28 -19 vhcurveto
          -2 51 -4 51 -5 51 -16 152 rcurveline
          hintmask 11100100
          -5 55 -8 55 56 vvcurveto
          endchar
        </CharString>
        <CharString name="semicolon">
          -253 -113 -21 273 137 0 155 hstemhm
          16 156 -120 162 hintmask 11010000
          29 30 callsubr
          -30 34 -47 -41 -38 -33 -47 vhcurveto
          hintmask 10101000
          25 callsubr
          63 447 29 callsubr
          endchar
        </CharString>
        <CharString name="seven">
          -74 -168 -21 575 111 hstem
          299 386 rmoveto
          -257 -575 rlineto
          129 hlineto
          271 623 rlineto
          63 -387 vlineto
          -30 -111 rlineto
          endchar
        </CharString>
        <CharString name="six">
          21 -12 83 264 86 309 -20 hstem
          25 128 208 129 vstem
          25 201 rmoveto
          -126 77 -87 131 155 102 127 131 107 -70 68 -107 -44 -31 -12 -25 -40 vhcurveto
          73 124 133 111 129 46 -18 65 rcurveline
          -47 -12 -49 -23 -45 -23 rrcurveto
          -176 -91 -173 -162 -218 vvcurveto
          128 -3 rmoveto
          31 5 25 7 28 vhcurveto
          31 31 40 22 41 hhcurveto
          59 25 -49 -53 -72 -40 -90 -79 -67 -22 65 62 hvcurveto
          endchar
        </CharString>
        <CharString name="slash">
          -180 31 callsubr
          85 hmoveto
          270 54 callsubr
          -94 hlineto
          -269 -732 rlineto
          endchar
        </CharString>
        <CharString name="space">
          -311 endchar
        </CharString>
        <CharString name="sterling">
          52 0 100 242 99 207 96 hstem
          488 hmoveto
          14 100 rlineto
          -279 hlineto
          32 242 rlineto
          124 -15 callsubr
          -123 hlineto
          15 111 rlineto
          55 7 31 41 55 hhcurveto
          44 27 -34 -39 13 hvcurveto
          101 54 rlineto
          75 -35 -51 40 -85 hhcurveto
          -120 -101 -73 -133 -16 hvcurveto
          -13 -97 rlineto
          -74 hlineto
          -13 -99 rlineto
          73 hlineto
          -32 -242 rlineto
          -88 hlineto
          -14 -100 rlineto
          endchar
        </CharString>
        <CharString name="summation">
          297 -229 137 725 99 hstem
          89 -229 rmoveto
          614 137 -501 hlineto
          15 16 19 16 13 19 252 351 rcurveline
          -208 270 -15 19 -18 17 -16 17 rlinecurve
          449 99 -604 -99 hlineto
          272 -356 -272 -376 rlineto
          endchar
        </CharString>
        <CharString name="t">
          -177 -10 82 342 83 -83 219 hstemhm
          51 119 hintmask 11010000
          94 414 rmoveto
          -40 -298 rlineto
          -2 -12 -1 -11 -11 vvcurveto
          -60 28 -32 76 39 58 10 13 37 vhcurveto
          -11 69 rlineto
          -7 -24 -26 -3 -25 hhcurveto
          -27 -6 18 21 9 1 10 1 9 hvcurveto
          36 275 rlineto
          115 hlineto
          12 83 rlineto
          -115 hlineto
          hintmask 10110000
          31 136 rlineto
          -127 hlineto
          hintmask 11010000
          -19 -136 rlineto
          -69 hlineto
          -11 -83 rlineto
          endchar
        </CharString>
        <CharString name="thorn">
          10 -196 -21 205 82 346 92 260 -20 hstemhm
          151 210 0 126 hintmask 11110100
          98 -217 rmoveto
          31 235 rlineto
          -20 26 33 -10 39 hhcurveto
          171 89 151 158 107 -49 104 -113 -52 -42 -15 -36 -45 hvcurveto
          41 311 rlineto
          -124 hlineto
          -5 3 -42 -6 vvcurveto
          -122 -932 rlineto
          hintmask 11111000
          167 405 rmoveto
          6 1 6 1 5 vhcurveto
          22 163 rlineto
          27 27 37 21 35 hhcurveto
          66 21 -71 -64 -49 -26 -162 -101 -62 -21 49 53 hvcurveto
          endchar
        </CharString>
        <CharString name="three">
          -33 -198 70 276 77 203 83 hstemhm
          284 135 -116 116 -116 135 hintmask 11101000
          -44 -198 rmoveto
          8 hlineto
          191 264 95 215 77 -55 36 -76 -9 -10 -1 -1 -11 hvcurveto
          hintmask 11100100
          72 35 108 78 85 vvcurveto
          68 -63 22 -59 -60 -83 -26 -50 -47 vhcurveto
          46 -56 rlineto
          23 27 41 26 32 hhcurveto
          21 10 -14 -20 -80 -108 -79 -63 -29 hvcurveto
          25 -72 rlineto
          8 21 24 6 23 hhcurveto
          hintmask 11110000
          39 20 -19 -39 -174 -217 -40 -115 -4 hvcurveto
          endchar
        </CharString>
        <CharString name="threequarters">
          440 -6 -21 27 180 -79 79 53 69 362 79 10 -20 hstemhm
          285 110 -98 98 hintmask 11011001
          43 233 rmoveto
          311 12 41 148 57 vvcurveto
          56 -34 29 -52 11 vhcurveto
          53 19 41 39 59 vvcurveto
          61 -63 19 -59 -61 -77 -30 -38 -51 vhcurveto
          33 -61 rlineto
          27 33 53 23 43 hhcurveto
          24 19 -12 -20 -64 -90 -21 -48 40 callsubr
          hintmask 10110110
          36 54 -4 -47 -69 -88 -50 -160 -8 hvcurveto
          294 -329 rmoveto
          399 780 rlineto
          -80 hlineto
          -398 -780 rlineto
          464 128 rmoveto
          hintmask 11011010
          -13 -101 rlineto
          108 hlineto
          hintmask 10111010
          13 101 rlineto
          68 hlineto
          11 79 rlineto
          -69 22 callsubr
          45 10 19 18 39 -9 -38 rcurveline
          -5 -20 -5 -22 -1 -9 -16 -117 rcurveline
          -104 hlineto
          endchar
        </CharString>
        <CharString name="tilde">
          -239 577 7 callsubr
          hintmask 01000000
          8 581 52 callsubr
          hintmask 10000000
          -84 callsubr
          hintmask 00100000
          -71 callsubr
          endchar
        </CharString>
        <CharString name="trademark">
          66 497 235 -46 46 hstemhm
          hintmask 01000000
          177 686 rmoveto
          hintmask 10000000
          -27 -189 rlineto
          61 hlineto
          hintmask 01000000
          26 189 rlineto
          73 hlineto
          6 46 rlineto
          -204 hlineto
          -6 -46 rlineto
          hintmask 10000000
          241 -189 rmoveto
          18 134 34 -134 rlineto
          36 hlineto
          25 47 22 40 21 41 -17 -128 rcurveline
          59 hlineto
          33 235 rlineto
          -73 hlineto
          -71 -136 -32 136 rlineto
          -74 hlineto
          -33 -235 rlineto
          endchar
        </CharString>
        <CharString name="two">
          -41 0 99 322 91 hstem
          276 139 vstem
          377 hmoveto
          40 99 rlineto
          -249 hlineto
          60 52 62 50 57 55 rrcurveto
          39 37 29 47 55 vvcurveto
          80 -71 37 -73 -84 -68 -34 -59 -69 vhcurveto
          49 -64 rlineto
          31 34 48 35 45 hhcurveto
          29 21 -17 -31 -31 -20 -25 -20 -20 hvcurveto
          -76 -77 -83 -90 -79 -76 rrcurveto
          -54 vlineto
          endchar
        </CharString>
        <CharString name="u">
          1 callsubr
          hstemhm
          28 120 hintmask 10110000
          -52 callsubr
          hintmask 01110000
          -80 callsubr
          hintmask 10110000
          -74 callsubr
          endchar
        </CharString>
        <CharString name="uacute">
          1 callsubr
          279 -75 callsubr
          302 480 -90 callsubr
        </CharString>
        <CharString name="ucircumflex">
          1 callsubr
          259 -75 callsubr
          178 480 -81 callsubr
        </CharString>
        <CharString name="udieresis">
          1 callsubr
          99 114 67 callsubr
          -7 -24 callsubr
          hintmask 10111010
          -52 callsubr
          hintmask 01111010
          -80 callsubr
          hintmask 10111010
          -74 callsubr
          hintmask 10110110
          113 522 -106 callsubr
        </CharString>
        <CharString name="ugrave">
          1 callsubr
          280 77 callsubr
          hintmask 10111000
          -52 callsubr
          hintmask 01111000
          -70 callsubr
          hvcurveto
          11 vlineto
          3 1 4 1 3 vhcurveto
          -36 callsubr
          hintmask 10111000
          -25 callsubr
          hvcurveto
          14 vlineto
          4 1 4 1 5 vhcurveto
          -59 callsubr
          194 481 -67 callsubr
          endchar
        </CharString>
        <CharString name="underscore">
          193 -143 96 hstem
          543 -143 rmoveto
          13 96 rlineto
          -508 hlineto
          -13 -96 rlineto
          endchar
        </CharString>
        <CharString name="uni000D">
          -511 endchar
        </CharString>
        <CharString name="uni00AD">
          -172 210 95 hstem
          52 221 vstem
          273 210 rmoveto
          95 -221 -95 vlineto
          endchar
        </CharString>
        <CharString name="uni00B2">
          -102 438 95 323 79 hstem
          320 113 vstem
          375 438 rmoveto
          38 95 rlineto
          -206 hlineto
          1 1 rlineto
          -1 1 1 1 3 hvcurveto
          31 19 191 128 140 vvcurveto
          61 -42 51 -93 -56 -44 -17 -19 -35 vhcurveto
          -20 -11 -18 -11 -16 -13 33 -66 rcurveline
          14 11 14 9 14 9 rrcurveto
          15 24 31 14 29 hhcurveto
          31 21 -20 -31 -56 -69 -80 -67 -65 hvcurveto
          -40 -38 -45 -38 -50 -39 rrcurveto
          -51 vlineto
          endchar
        </CharString>
        <CharString name="uni00B3">
          -122 425 69 362 79 hstem
          309 99 vstem
          55 425 rmoveto
          310 12 43 146 59 vvcurveto
          56 -35 29 -53 11 vhcurveto
          56 19 40 38 59 vvcurveto
          63 -64 18 -60 -61 -76 -31 -37 -51 vhcurveto
          33 -61 rlineto
          26 34 53 24 43 hhcurveto
          23 19 -11 -20 -65 -87 -21 -51 40 callsubr
          36 55 -4 -47 -69 -91 -50 -157 -8 hvcurveto
          endchar
        </CharString>
        <CharString name="uni00B5">
          61 -166 -21 176 94 -71 -21 506 -20 hstemhm
          hintmask 11010000
          115 -187 rmoveto
          26 191 rlineto
          -10 18 20 -5 22 hhcurveto
          44 49 33 35 33 hvcurveto
          hintmask 10110000
          -39 3 23 -27 39 hhcurveto
          36 42 16 11 36 hvcurveto
          -10 73 rlineto
          -4 -15 -17 -8 -15 hhcurveto
          -15 -3 14 15 9 -23 callsubr
          48 366 53 callsubr
          4 -53 -42 -314 rlineto
          hintmask 11010000
          -29 -31 -35 -18 -40 hhcurveto
          -43 -9 31 35 13 1 12 2 12 hvcurveto
          42 311 rlineto
          -125 hlineto
          3 -53 -84 -631 rlineto
          endchar
        </CharString>
        <CharString name="uni00B9">
          -112 438 79 407 -20 hstem
          388 438 rmoveto
          10 79 rlineto
          -102 hlineto
          53 407 rlineto
          -81 hlineto
          -44 -21 -43 -17 -35 -12 -20 -7 -19 -7 -18 -5 15 -70 rcurveline
          124 35 -40 -303 rlineto
          -127 hlineto
          -10 -79 rlineto
          endchar
        </CharString>
        <CharString name="uni2126">
          257 0 99 545 99 hstem
          57 137 389 142 vstem
          280 hmoveto
          10 76 rlineto
          -72 29 -24 84 87 vvcurveto
          128 57 240 176 120 36 -111 -111 -118 -43 -183 -125 -45 vhcurveto
          -10 -76 rlineto
          280 -15 callsubr
          -64 hlineto
          -69 -6 rlineto
          99 56 61 160 128 vvcurveto
          178 -97 128 -188 -223 -160 -190 -239 -92 32 -92 55 -37 vhcurveto
          -67 6 rlineto
          -64 hlineto
          -12 -99 rlineto
          endchar
        </CharString>
        <CharString name="uni2206">
          147 65 callsubr
          585 hmoveto
          9 67 -158 665 rlineto
          -103 hlineto
          -333 -665 -9 -67 rlineto
          133 99 rmoveto
          56 109 84 174 48 104 16 31 17 55 5 14 3 -15 1 -52 5 -32 21 -103 38 -176 27 -109 rrcurveto
          endchar
        </CharString>
        <CharString name="uniE000">
          -16 21 -21 495 -20 hstem
          0 vmoveto
          495 495 -495 hlineto
          endchar
        </CharString>
        <CharString name="uniFB01">
          36 -230 79 172 -21 414 -48 callsubr
          173 hlineto
          -56 -414 rlineto
          124 hlineto
          -2 39 callsubr
          -287 hlineto
          69 11 26 128 85 hhcurveto
          44 25 -53 -41 hvcurveto
          112 31 rlineto
          118 -24 -106 27 -45 hhcurveto
          -168 -57 callsubr
        </CharString>
        <CharString name="uniFB02">
          40 -230 79 172 -21 414 -34 callsubr
          39 19 -22 -39 hvcurveto
          -8 vlineto
          -3 0 -2 -1 -3 vhcurveto
          -82 -617 rlineto
          127 hlineto
          -3 54 96 715 -97 -24 rlineto
          16 -23 -43 15 -29 hhcurveto
          -175 -57 callsubr
        </CharString>
        <CharString name="v">
          -62 17 -21 501 -20 hstem
          134 -4 rmoveto
          106 hlineto
          232 501 rlineto
          -117 hlineto
          -116 -262 -12 -27 -6 -29 -8 -28 rlinecurve
          -3 29 0 27 -7 28 -53 262 rcurveline
          -122 hlineto
          endchar
        </CharString>
        <CharString name="w">
          165 17 -21 501 -20 hstem
          106 -4 rmoveto
          99 hlineto
          115 270 3 7 5 18 3 15 rlinecurve
          6 29 rlineto
          -33 vlineto
          -17 1 -19 1 -8 vhcurveto
          38 -262 rlineto
          99 hlineto
          219 501 rlineto
          -115 hlineto
          -97 -239 -5 -14 -5 -14 -3 -13 rlinecurve
          -11 -44 rlineto
          1 6 0 6 7 vvcurveto
          22 vlineto
          23 -1 22 -1 7 vhcurveto
          -33 231 rlineto
          -112 hlineto
          -101 -239 -9 -23 -7 -26 -8 -36 rlinecurve
          1 8 0 8 7 vvcurveto
          22 vlineto
          23 -1 17 -1 8 vhcurveto
          -33 231 rlineto
          -122 hlineto
          endchar
        </CharString>
        <CharString name="x">
          -61 12 callsubr
          hstem
          84 hmoveto
          120 165 76 -165 rlineto
          133 hlineto
          -134 267 179 230 rlineto
          -129 hlineto
          -95 -132 -61 132 rlineto
          -132 hlineto
          120 -233 -207 -264 rlineto
          endchar
        </CharString>
        <CharString name="y">
          -59 64 callsubr
          hstem
          -92 callsubr
          -51 -77 rcurveline
          endchar
        </CharString>
        <CharString name="yacute">
          -59 64 callsubr
          280 -20 hstem
          -92 callsubr
          rrcurveto
          431 705 -90 callsubr
        </CharString>
        <CharString name="ydieresis">
          -59 64 callsubr
          99 73 callsubr
          127 6 callsubr
          -92 callsubr
          rrcurveto
          249 746 -106 callsubr
        </CharString>
        <CharString name="yen">
          -1 0 211 -49 49 60 49 -49 226 hstemhm
          hintmask 01100000
          181 162 rmoveto
          hintmask 10100000
          -21 -162 rlineto
          115 hlineto
          hintmask 01100000
          21 162 rlineto
          153 hlineto
          7 49 rlineto
          -153 5 hlineto
          37 55 rlineto
          123 hlineto
          7 49 rlineto
          -95 hlineto
          hintmask 10010000
          120 177 rlineto
          -117 hlineto
          -109 -165 -67 165 rlineto
          -139 hlineto
          hintmask 10100000
          79 -177 rlineto
          -101 hlineto
          -7 -49 rlineto
          129 hlineto
          25 -55 rlineto
          -5 -161 vlineto
          hintmask 01100000
          -7 -49 rlineto
          endchar
        </CharString>
        <CharString name="z">
          -84 0 84 330 83 -14 callsubr
          endchar
        </CharString>
        <CharString name="zcaron">
          -84 0 84 330 83 240 -20 -14 callsubr
          217 592 -56 callsubr
        </CharString>
        <CharString name="zero">
          58 -12 81 360 81 hstem
          26 123 254 124 vstem
          26 197 rmoveto
          -132 77 -77 139 205 80 150 163 133 -75 76 -141 -171 -114 -114 -199 vhcurveto
          123 -8 rmoveto
          96 29 144 122 81 22 -58 -68 -100 -30 -134 -120 -83 -21 54 66 vhcurveto
          endchar
        </CharString>
</ttFont>
